<?xml version="1.0" encoding="utf-8"?>
<!-- Generator: Adobe Illustrator 24.2.3, SVG Export Plug-In . SVG Version: 6.00 Build 0)  -->
<svg version="1.1" xmlns="http://www.w3.org/2000/svg" xmlns:xlink="http://www.w3.org/1999/xlink" x="0px" y="0px"
	 viewBox="0 0 1920 1080" style="enable-background:new 0 0 1920 1080;" xml:space="preserve">
<style type="text/css">
	.st0{display:none;}
	.st1{display:inline;fill:#202B5D;}
	.st2{fill:none;stroke:#FFFFFF;stroke-width:5;stroke-miterlimit:10;}
	.st3{opacity:0.5;fill:none;stroke:#FFFFFF;stroke-width:5;stroke-miterlimit:10;}
	.st4{fill:#2E632E;}
	.st5{fill:#458D51;}
	.st6{fill:#1A4C1A;}
	.st7{fill:none;}
	.st8{fill:#808080;}
	.st9{fill:#CCCCCC;}
	.st10{fill:#FF0000;}
	.st11{fill:#C1272D;}
	.st12{fill:#FFFFFF;}
</style>
<g id="Layer_2" class="st0">
	<rect class="st1" width="1920" height="1080"/>
</g>
<g id="Layer_3">
	<path class="st2" d="M761.75,715.84c4.88,0.6,6.71-2.28,13-2c4.65,0.21,7.67,1.97,10,3c12.17,5.39,30.68-0.23,41-6
		c12.84-7.18,9.17-12.26,23-20c12.8-7.16,26.57-8.74,29-9c14.44-1.53,20.58,1.99,26-3c5.23-4.8,1.39-9.79,7-17
		c3.9-5.01,7.22-4.5,22-12c4.31-2.19,8.21-4.46,16-9c13.2-7.69,22.53-14.03,24-15c10.13-6.68,34.47-13.68,94-17
		c13.06,4.72,43.96,15.52,59,18c0.82,0.14,7.01,1.11,8-1c1.21-2.57-6.81-6.59-6-11c0.92-4.99,11.94-3.9,15-11
		c1.97-4.56-0.85-9.04,1-10c1.62-0.84,5.19,1.85,7,5c2.39,4.16,1.58,8.88,1,12c-1.29,6.97-4.21,8.91-3,11c1.87,3.22,11.44,3.14,14-1
		c2.82-4.56-4.32-11.67-2-14c2.01-2.02,10.12,0.54,13,6c2.15,4.08-0.03,7.07,2,9c3.13,2.97,9.52-3.03,18-3
		c8.19,0.03,9.26,5.66,25,15c11.14,6.61,20.18,9.48,29,10c1.82,0.11,11.59,0.68,13-3c0.77-2.01-1.61-3.57-1-5
		c2.01-4.75,29.47,8.83,40-1c5.2-4.85,3.88-13.18,11-16c0.33-0.13,4.34-1.67,6,0c2.1,2.12-1.73,7.22,0,9c1.92,1.98,7.57-3.34,17-5
		c9.51-1.68,11.7,2.33,18,0c7.5-2.78,6.19-9.14,14-16c11.41-10.03,22.03-3.34,28-12c1.67-2.43,1.34-3.73,1-26
		c-0.18-11.97-0.27-17.99,0-20c2.08-15.73,8.37-17.91,7-28c-0.81-5.93-2.97-5.09-8-18c-4.73-12.14-2.63-12.42-6-19
		c-5.89-11.52-16.17-18.21-22-22c-6.61-4.3-6.99-3.11-12-7c-9.22-7.16-8.95-11.98-16-15c-6.2-2.65-7.56,0.58-16-2
		c-6.44-1.97-7.66-4.47-16-9c0,0-7.1-3.86-17-7c-13.35-4.23-19.7-1.52-30-4c-19.19-4.62-18.28-11.46-34-16
		c-25.63-7.4-37.52,8.06-58-2c-3.9-1.92-1.34-1.43-19-17c-30.86-27.2-39.9-29.76-47-30c-9.04-0.31-9.48,3.31-18,2
		c-11.28-1.74-13.94-8.62-30-19c-6.99-4.52-24.91-16.1-31-11c-3,2.51-3.02,8.92-1,13c2.5,5.06,7.09,4.42,10,10
		c2.32,4.45,0.11,6.22,2,11c2.51,6.35,7.46,5.85,13,12c5.69,6.32,6.8,13.87,8,22c1.44,9.77,2.28,15.52-1,19
		c-4.37,4.64-11.89,0.86-33-2c-16.25-2.2-14.43-0.33-37-3c-20.12-2.38-19.77-3.66-27-3c-6.04,0.55-11.84,1.95-14-1
		c-1.29-1.76-0.13-3.5,1-10c0.96-5.52,2.07-12.23,0-19c-0.93-3.06-2-6.55-5-8c-3.2-1.55-6.61,0.18-13,3c-9.94,4.38-14.91,6.58-20,8
		c-3.33,0.93-11.25,3.07-21,2c-9.73-1.07-13.38-4.46-19-2c-4.12,1.8-3.25,4.11-8,8c-9.55,7.84-19.31,3.62-23,10
		c-1.56,2.7,0.28,3.29,0,12c-0.37,11.48-3.75,16.2-1,19c2.83,2.87,8.87,0.42,9,1c0.19,0.88-13.49,7.8-31,7
		c-12.08-0.56-12.94-4.19-22-3c-1.29,0.17-16.05,2.32-25,14c-5.29,6.91-3.38,10.39-10,17c-4.7,4.69-9.21,6.33-9,10
		c0.24,4.14,5.92,6.45,5,9c-0.6,1.66-3.65,2.48-6,2c-3.46-0.71-3.92-3.98-6-4c-3.45-0.03-8.58,8.94-6,15c1.98,4.65,6.85,3.72,9,8
		c2.99,5.94-2.5,15.44-8,21c-5.94,6.01-10.7,6.23-25,12c-6.17,2.49-13.11,5.99-27,13c-26.35,13.29-28.66,16.53-30,19
		c-4.39,8.06-3.3,16.8-8,18c-3.9,1-6.99-4.44-10-3c-3.08,1.47-4.05,9.18-1,14c2.35,3.71,5.71,3.37,7,7c1.38,3.87-1.47,6.05-1,9
		c1.49,9.42,35.44,6.97,37,15c0.49,2.54-2.59,5.69-5,7c-4.16,2.26-8.82,0.33-9,1c-0.24,0.88,8.19,2.58,16,8
		c7.8,5.42,5.77,8.45,12,12c10.61,6.06,19.31,0.53,25,7c3.37,3.84,0.71,6.23,4,11c5.13,7.45,13.38,4.19,25,11
		c10.05,5.89,16.87,15.94,15,19c-1.38,2.25-7-0.09-8,2C748.56,707.33,754.5,714.95,761.75,715.84z"/>
	<path class="st2" d="M1350.75,649.84c-3.77-0.43-10.21-1.51-16,2c-1.3,0.79-5.08,3.08-5,6c0.09,3.25,4.9,4.43,15,11
		c6.35,4.13,5.72,4.49,10,7c7,4.1,13.13,5.74,18,7c8.61,2.23,15.41,2.49,29,3c14.73,0.55,16.81-0.37,18-1
		c8.66-4.61,13.39-17.07,11-27c-1.24-5.13-5.49-9.42-14-18c-7.33-7.39-9.8-7.88-11-8c-6.39-0.63-7.94,6.53-17,12
		C1374.63,652.37,1353.61,650.17,1350.75,649.84z"/>
</g>
<g id="Layer_4">
	<path class="st3" d="M761.04,719.84c4.88,0.6,6.71-2.28,13-2c4.65,0.21,7.67,1.97,10,3c12.17,5.39,30.68-0.23,41-6
		c12.84-7.18,9.17-12.26,23-20c12.8-7.16,26.57-8.74,29-9c14.44-1.53,20.58,1.99,26-3c5.23-4.8,1.39-9.79,7-17
		c3.9-5.01,7.22-4.5,22-12c4.31-2.19,8.21-4.46,16-9c13.2-7.69,22.53-14.03,24-15c10.13-6.68,34.47-13.68,94-17
		c13.06,4.72,43.96,15.52,59,18c0.82,0.14,7.01,1.11,8-1c1.21-2.57-6.81-6.59-6-11c0.92-4.99,11.94-3.9,15-11
		c1.97-4.56-0.85-9.04,1-10c1.62-0.84,5.19,1.85,7,5c2.39,4.16,1.58,8.88,1,12c-1.29,6.97-4.21,8.91-3,11c1.87,3.22,11.44,3.14,14-1
		c2.82-4.56-4.32-11.67-2-14c2.01-2.02,10.12,0.54,13,6c2.15,4.08-0.03,7.07,2,9c3.13,2.97,9.52-3.03,18-3
		c8.19,0.03,9.26,5.66,25,15c11.14,6.61,20.18,9.48,29,10c1.82,0.11,11.59,0.68,13-3c0.77-2.01-1.61-3.57-1-5
		c2.01-4.75,29.47,8.83,40-1c5.2-4.85,3.88-13.18,11-16c0.33-0.13,4.34-1.67,6,0c2.1,2.12-1.73,7.22,0,9c1.92,1.98,7.57-3.34,17-5
		c9.51-1.68,11.7,2.33,18,0c7.5-2.78,6.19-9.14,14-16c11.41-10.03,22.03-3.34,28-12c1.67-2.43,1.34-3.73,1-26
		c-0.18-11.97-0.27-17.99,0-20c2.08-15.73,8.37-17.91,7-28c-0.81-5.93-2.97-5.09-8-18c-4.73-12.14-2.63-12.42-6-19
		c-5.89-11.52-16.17-18.21-22-22c-6.61-4.3-6.99-3.11-12-7c-9.22-7.16-8.95-11.98-16-15c-6.2-2.65-7.56,0.58-16-2
		c-6.44-1.97-7.66-4.47-16-9c0,0-7.1-3.86-17-7c-13.35-4.23-19.7-1.52-30-4c-19.19-4.62-18.28-11.46-34-16
		c-25.63-7.4-37.52,8.06-58-2c-3.9-1.92-1.34-1.43-19-17c-30.86-27.2-39.9-29.76-47-30c-9.04-0.31-9.48,3.31-18,2
		c-11.28-1.74-13.94-8.62-30-19c-6.99-4.52-24.91-16.1-31-11c-3,2.51-3.02,8.92-1,13c2.5,5.06,7.09,4.42,10,10
		c2.32,4.45,0.11,6.22,2,11c2.51,6.35,7.46,5.85,13,12c5.69,6.32,6.8,13.87,8,22c1.44,9.77,2.28,15.52-1,19
		c-4.37,4.64-11.89,0.86-33-2c-16.25-2.2-14.43-0.33-37-3c-20.12-2.38-19.77-3.66-27-3c-6.04,0.55-11.84,1.95-14-1
		c-1.29-1.76-0.13-3.5,1-10c0.96-5.52,2.07-12.23,0-19c-0.93-3.06-2-6.55-5-8c-3.2-1.55-6.61,0.18-13,3c-9.94,4.38-14.91,6.58-20,8
		c-3.33,0.93-11.25,3.07-21,2c-9.73-1.07-13.38-4.46-19-2c-4.12,1.8-3.25,4.11-8,8c-9.55,7.84-19.31,3.62-23,10
		c-1.56,2.7,0.28,3.29,0,12c-0.37,11.48-3.75,16.2-1,19c2.83,2.87,8.87,0.42,9,1c0.19,0.88-13.49,7.8-31,7
		c-12.08-0.56-12.94-4.19-22-3c-1.29,0.17-16.05,2.32-25,14c-5.29,6.91-3.38,10.39-10,17c-4.7,4.69-9.21,6.33-9,10
		c0.24,4.14,5.92,6.45,5,9c-0.6,1.66-3.65,2.48-6,2c-3.46-0.71-3.92-3.98-6-4c-3.45-0.03-8.58,8.94-6,15c1.98,4.65,6.85,3.72,9,8
		c2.99,5.94-2.5,15.44-8,21c-5.94,6.01-10.7,6.23-25,12c-6.17,2.49-13.11,5.99-27,13c-26.35,13.29-28.66,16.53-30,19
		c-4.39,8.06-3.3,16.8-8,18c-3.9,1-6.99-4.44-10-3c-3.08,1.47-4.05,9.18-1,14c2.35,3.71,5.71,3.37,7,7c1.38,3.87-1.47,6.05-1,9
		c1.49,9.42,35.44,6.97,37,15c0.49,2.54-2.59,5.69-5,7c-4.16,2.26-8.82,0.33-9,1c-0.24,0.88,8.19,2.58,16,8
		c7.8,5.42,5.77,8.45,12,12c10.61,6.06,19.31,0.53,25,7c3.37,3.84,0.71,6.23,4,11c5.13,7.45,13.38,4.19,25,11
		c10.05,5.89,16.87,15.94,15,19c-1.38,2.25-7-0.09-8,2C747.85,711.33,753.79,718.95,761.04,719.84z"/>
	<path class="st3" d="M1350.04,654.84c-3.77-0.43-10.21-1.51-16,2c-1.3,0.79-5.08,3.08-5,6c0.09,3.25,4.9,4.43,15,11
		c6.35,4.13,5.72,4.49,10,7c7,4.1,13.13,5.74,18,7c8.61,2.23,15.41,2.49,29,3c14.73,0.55,16.81-0.37,18-1
		c8.66-4.61,13.39-17.07,11-27c-1.24-5.13-5.49-9.42-14-18c-7.33-7.39-9.8-7.88-11-8c-6.39-0.63-7.94,6.53-17,12
		C1373.91,657.37,1352.9,655.17,1350.04,654.84z"/>
</g>
<g id="Layer_5">
	<g>
		<path class="st4" d="M761.55,705.59c4.88,0.6,6.71-2.28,13-2c4.65,0.21,7.67,1.97,10,3c12.17,5.39,30.68-0.23,41-6
			c12.84-7.18,9.17-12.26,23-20c12.8-7.16,26.57-8.74,29-9c14.44-1.53,20.58,1.99,26-3c5.23-4.8,1.39-9.79,7-17
			c3.9-5.01,7.22-4.5,22-12c4.31-2.19,8.21-4.46,16-9c13.2-7.69,22.53-14.03,24-15c10.13-6.68,34.47-13.68,94-17
			c13.06,4.72,43.96,15.52,59,18c0.82,0.14,7.01,1.11,8-1c1.21-2.57-6.81-6.59-6-11c0.92-4.99,11.94-3.9,15-11
			c1.97-4.56-0.85-9.04,1-10c1.62-0.84,5.19,1.85,7,5c2.39,4.16,1.58,8.88,1,12c-1.29,6.97-4.21,8.91-3,11
			c1.87,3.22,11.44,3.14,14-1c2.82-4.56-4.32-11.67-2-14c2.01-2.02,10.12,0.54,13,6c2.15,4.08-0.03,7.07,2,9
			c3.13,2.97,9.52-3.03,18-3c8.19,0.03,9.26,5.66,25,15c11.14,6.61,20.18,9.48,29,10c1.82,0.11,11.59,0.68,13-3
			c0.77-2.01-1.61-3.57-1-5c2.01-4.75,29.47,8.83,40-1c5.2-4.85,3.88-13.18,11-16c0.33-0.13,4.34-1.67,6,0c2.1,2.12-1.73,7.22,0,9
			c1.92,1.98,7.57-3.34,17-5c9.51-1.68,11.7,2.33,18,0c7.5-2.78,6.19-9.14,14-16c11.41-10.03,22.03-3.34,28-12
			c1.67-2.43,1.34-3.73,1-26c-0.18-11.97-0.27-17.99,0-20c2.08-15.73,8.37-17.91,7-28c-0.81-5.93-2.97-5.09-8-18
			c-4.73-12.14-2.63-12.42-6-19c-5.89-11.52-16.17-18.21-22-22c-6.61-4.3-6.99-3.11-12-7c-9.22-7.16-8.95-11.98-16-15
			c-6.2-2.65-7.56,0.58-16-2c-6.44-1.97-7.66-4.47-16-9c0,0-7.1-3.86-17-7c-13.35-4.23-19.7-1.52-30-4
			c-19.19-4.62-18.28-11.46-34-16c-25.63-7.4-37.52,8.06-58-2c-3.9-1.92-1.34-1.43-19-17c-30.86-27.2-39.9-29.76-47-30
			c-9.04-0.31-9.48,3.31-18,2c-11.28-1.74-13.94-8.62-30-19c-6.99-4.52-24.91-16.1-31-11c-3,2.51-3.02,8.92-1,13
			c2.5,5.06,7.09,4.42,10,10c2.32,4.45,0.11,6.22,2,11c2.51,6.35,7.46,5.85,13,12c5.69,6.32,6.8,13.87,8,22
			c1.44,9.77,2.28,15.52-1,19c-4.37,4.64-11.89,0.86-33-2c-16.25-2.2-14.43-0.33-37-3c-20.12-2.38-19.77-3.66-27-3
			c-6.04,0.55-11.84,1.95-14-1c-1.29-1.76-0.13-3.5,1-10c0.96-5.52,2.07-12.23,0-19c-0.93-3.06-2-6.55-5-8c-3.2-1.55-6.61,0.18-13,3
			c-9.94,4.38-14.91,6.58-20,8c-3.33,0.93-11.25,3.07-21,2c-9.73-1.07-13.38-4.46-19-2c-4.12,1.8-3.25,4.11-8,8
			c-9.55,7.84-19.31,3.62-23,10c-1.56,2.7,0.28,3.29,0,12c-0.37,11.48-3.75,16.2-1,19c2.83,2.87,8.87,0.42,9,1
			c0.19,0.88-13.49,7.8-31,7c-12.08-0.56-12.94-4.19-22-3c-1.29,0.17-16.05,2.32-25,14c-5.29,6.91-3.38,10.39-10,17
			c-4.7,4.69-9.21,6.33-9,10c0.24,4.14,5.92,6.45,5,9c-0.6,1.66-3.65,2.48-6,2c-3.46-0.71-3.92-3.98-6-4c-3.45-0.03-8.58,8.94-6,15
			c1.98,4.65,6.85,3.72,9,8c2.99,5.94-2.5,15.44-8,21c-5.94,6.01-10.7,6.23-25,12c-6.17,2.49-13.11,5.99-27,13
			c-26.35,13.29-28.66,16.53-30,19c-4.39,8.06-3.3,16.8-8,18c-3.9,1-6.99-4.44-10-3c-3.08,1.47-4.05,9.18-1,14
			c2.35,3.71,5.71,3.37,7,7c1.38,3.87-1.47,6.05-1,9c1.49,9.42,35.44,6.97,37,15c0.49,2.54-2.59,5.69-5,7c-4.16,2.26-8.82,0.33-9,1
			c-0.24,0.88,8.19,2.58,16,8c7.8,5.42,5.77,8.45,12,12c10.61,6.06,19.31,0.53,25,7c3.37,3.84,0.71,6.23,4,11
			c5.13,7.45,13.38,4.19,25,11c10.05,5.89,16.87,15.94,15,19c-1.38,2.25-7-0.09-8,2C748.36,697.08,754.31,704.69,761.55,705.59z"/>
		<path class="st4" d="M1348.55,638.59c-3.77-0.43-10.21-1.51-16,2c-1.3,0.79-5.08,3.08-5,6c0.09,3.25,4.9,4.43,15,11
			c6.35,4.13,5.72,4.49,10,7c7,4.1,13.13,5.74,18,7c8.61,2.23,15.41,2.49,29,3c14.73,0.55,16.81-0.37,18-1
			c8.66-4.61,13.39-17.07,11-27c-1.24-5.13-5.49-9.42-14-18c-7.33-7.39-9.8-7.88-11-8c-6.39-0.63-7.94,6.53-17,12
			C1372.43,641.11,1351.41,638.91,1348.55,638.59z"/>
		<path class="st4" d="M761.21,706.35c4.88,0.6,6.71-2.28,13-2c4.65,0.21,7.67,1.97,10,3c12.17,5.39,30.68-0.23,41-6
			c12.84-7.18,9.17-12.26,23-20c12.8-7.16,26.57-8.74,29-9c14.44-1.53,20.58,1.99,26-3c5.23-4.8,1.39-9.79,7-17
			c3.9-5.01,7.22-4.5,22-12c4.31-2.19,8.21-4.46,16-9c13.2-7.69,22.53-14.03,24-15c10.13-6.68,34.47-13.68,94-17
			c13.06,4.72,43.96,15.52,59,18c0.82,0.14,7.01,1.11,8-1c1.21-2.57-6.81-6.59-6-11c0.92-4.99,11.94-3.9,15-11
			c1.97-4.56-0.85-9.04,1-10c1.62-0.84,5.19,1.85,7,5c2.39,4.16,1.58,8.88,1,12c-1.29,6.97-4.21,8.91-3,11
			c1.87,3.22,11.44,3.14,14-1c2.82-4.56-4.32-11.67-2-14c2.01-2.02,10.12,0.54,13,6c2.15,4.08-0.03,7.07,2,9
			c3.13,2.97,9.52-3.03,18-3c8.19,0.03,9.26,5.66,25,15c11.14,6.61,20.18,9.48,29,10c1.82,0.11,11.59,0.68,13-3
			c0.77-2.01-1.61-3.57-1-5c2.01-4.75,29.47,8.83,40-1c5.2-4.85,3.88-13.18,11-16c0.33-0.13,4.34-1.67,6,0c2.1,2.12-1.73,7.22,0,9
			c1.92,1.98,7.57-3.34,17-5c9.51-1.68,11.7,2.33,18,0c7.5-2.78,6.19-9.14,14-16c11.41-10.03,22.03-3.34,28-12
			c1.67-2.43,1.34-3.73,1-26c-0.18-11.97-0.27-17.99,0-20c2.08-15.73,8.37-17.91,7-28c-0.81-5.93-2.97-5.09-8-18
			c-4.73-12.14-2.63-12.42-6-19c-5.89-11.52-16.17-18.21-22-22c-6.61-4.3-6.99-3.11-12-7c-9.22-7.16-8.95-11.98-16-15
			c-6.2-2.65-7.56,0.58-16-2c-6.44-1.97-7.66-4.47-16-9c0,0-7.1-3.86-17-7c-13.35-4.23-19.7-1.52-30-4
			c-19.19-4.62-18.28-11.46-34-16c-25.63-7.4-37.52,8.06-58-2c-3.9-1.92-1.34-1.43-19-17c-30.86-27.2-39.9-29.76-47-30
			c-9.04-0.31-9.48,3.31-18,2c-11.28-1.74-13.94-8.62-30-19c-6.99-4.52-24.91-16.1-31-11c-3,2.51-3.02,8.92-1,13
			c2.5,5.06,7.09,4.42,10,10c2.32,4.45,0.11,6.22,2,11c2.51,6.35,7.46,5.85,13,12c5.69,6.32,6.8,13.87,8,22
			c1.44,9.77,2.28,15.52-1,19c-4.37,4.64-11.89,0.86-33-2c-16.25-2.2-14.43-0.33-37-3c-20.12-2.38-19.77-3.66-27-3
			c-6.04,0.55-11.84,1.95-14-1c-1.29-1.76-0.13-3.5,1-10c0.96-5.52,2.07-12.23,0-19c-0.93-3.06-2-6.55-5-8c-3.2-1.55-6.61,0.18-13,3
			c-9.94,4.38-14.91,6.58-20,8c-3.33,0.93-11.25,3.07-21,2c-9.73-1.07-13.38-4.46-19-2c-4.12,1.8-3.25,4.11-8,8
			c-9.55,7.84-19.31,3.62-23,10c-1.56,2.7,0.28,3.29,0,12c-0.37,11.48-3.75,16.2-1,19c2.83,2.87,8.87,0.42,9,1
			c0.19,0.88-13.49,7.8-31,7c-12.08-0.56-12.94-4.19-22-3c-1.29,0.17-16.05,2.32-25,14c-5.29,6.91-3.38,10.39-10,17
			c-4.7,4.69-9.21,6.33-9,10c0.24,4.14,5.92,6.45,5,9c-0.6,1.66-3.65,2.48-6,2c-3.46-0.71-3.92-3.98-6-4c-3.45-0.03-8.58,8.94-6,15
			c1.98,4.65,6.85,3.72,9,8c2.99,5.94-2.5,15.44-8,21c-5.94,6.01-10.7,6.23-25,12c-6.17,2.49-13.11,5.99-27,13
			c-26.35,13.29-28.66,16.53-30,19c-4.39,8.06-3.3,16.8-8,18c-3.9,1-6.99-4.44-10-3c-3.08,1.47-4.05,9.18-1,14
			c2.35,3.71,5.71,3.37,7,7c1.38,3.87-1.47,6.05-1,9c1.49,9.42,35.44,6.97,37,15c0.49,2.54-2.59,5.69-5,7c-4.16,2.26-8.82,0.33-9,1
			c-0.24,0.88,8.19,2.58,16,8c7.8,5.42,5.77,8.45,12,12c10.61,6.06,19.31,0.53,25,7c3.37,3.84,0.71,6.23,4,11
			c5.13,7.45,13.38,4.19,25,11c10.05,5.89,16.87,15.94,15,19c-1.38,2.25-7-0.09-8,2C748.02,697.85,753.97,705.46,761.21,706.35z"/>
		<path class="st4" d="M1348.21,639.35c-3.77-0.43-10.21-1.51-16,2c-1.3,0.79-5.08,3.08-5,6c0.09,3.25,4.9,4.43,15,11
			c6.35,4.13,5.72,4.49,10,7c7,4.1,13.13,5.74,18,7c8.61,2.23,15.41,2.49,29,3c14.73,0.55,16.81-0.37,18-1
			c8.66-4.61,13.39-17.07,11-27c-1.24-5.13-5.49-9.42-14-18c-7.33-7.39-9.8-7.88-11-8c-6.39-0.63-7.94,6.53-17,12
			C1372.09,641.88,1351.07,639.68,1348.21,639.35z"/>
		<path class="st4" d="M761.21,708.35c4.88,0.6,6.71-2.28,13-2c4.65,0.21,7.67,1.97,10,3c12.17,5.39,30.68-0.23,41-6
			c12.84-7.18,9.17-12.26,23-20c12.8-7.16,26.57-8.74,29-9c14.44-1.53,20.58,1.99,26-3c5.23-4.8,1.39-9.79,7-17
			c3.9-5.01,7.22-4.5,22-12c4.31-2.19,8.21-4.46,16-9c13.2-7.69,22.53-14.03,24-15c10.13-6.68,34.47-13.68,94-17
			c13.06,4.72,43.96,15.52,59,18c0.82,0.14,7.01,1.11,8-1c1.21-2.57-6.81-6.59-6-11c0.92-4.99,11.94-3.9,15-11
			c1.97-4.56-0.85-9.04,1-10c1.62-0.84,5.19,1.85,7,5c2.39,4.16,1.58,8.88,1,12c-1.29,6.97-4.21,8.91-3,11
			c1.87,3.22,11.44,3.14,14-1c2.82-4.56-4.32-11.67-2-14c2.01-2.02,10.12,0.54,13,6c2.15,4.08-0.03,7.07,2,9
			c3.13,2.97,9.52-3.03,18-3c8.19,0.03,9.26,5.66,25,15c11.14,6.61,20.18,9.48,29,10c1.82,0.11,11.59,0.68,13-3
			c0.77-2.01-1.61-3.57-1-5c2.01-4.75,29.47,8.83,40-1c5.2-4.85,3.88-13.18,11-16c0.33-0.13,4.34-1.67,6,0c2.1,2.12-1.73,7.22,0,9
			c1.92,1.98,7.57-3.34,17-5c9.51-1.68,11.7,2.33,18,0c7.5-2.78,6.19-9.14,14-16c11.41-10.03,22.03-3.34,28-12
			c1.67-2.43,1.34-3.73,1-26c-0.18-11.97-0.27-17.99,0-20c2.08-15.73,8.37-17.91,7-28c-0.81-5.93-2.97-5.09-8-18
			c-4.73-12.14-2.63-12.42-6-19c-5.89-11.52-16.17-18.21-22-22c-6.61-4.3-6.99-3.11-12-7c-9.22-7.16-8.95-11.98-16-15
			c-6.2-2.65-7.56,0.58-16-2c-6.44-1.97-7.66-4.47-16-9c0,0-7.1-3.86-17-7c-13.35-4.23-19.7-1.52-30-4
			c-19.19-4.62-18.28-11.46-34-16c-25.63-7.4-37.52,8.06-58-2c-3.9-1.92-1.34-1.43-19-17c-30.86-27.2-39.9-29.76-47-30
			c-9.04-0.31-9.48,3.31-18,2c-11.28-1.74-13.94-8.62-30-19c-6.99-4.52-24.91-16.1-31-11c-3,2.51-3.02,8.92-1,13
			c2.5,5.06,7.09,4.42,10,10c2.32,4.45,0.11,6.22,2,11c2.51,6.35,7.46,5.85,13,12c5.69,6.32,6.8,13.87,8,22
			c1.44,9.77,2.28,15.52-1,19c-4.37,4.64-11.89,0.86-33-2c-16.25-2.2-14.43-0.33-37-3c-20.12-2.38-19.77-3.66-27-3
			c-6.04,0.55-11.84,1.95-14-1c-1.29-1.76-0.13-3.5,1-10c0.96-5.52,2.07-12.23,0-19c-0.93-3.06-2-6.55-5-8c-3.2-1.55-6.61,0.18-13,3
			c-9.94,4.38-14.91,6.58-20,8c-3.33,0.93-11.25,3.07-21,2c-9.73-1.07-13.38-4.46-19-2c-4.12,1.8-3.25,4.11-8,8
			c-9.55,7.84-19.31,3.62-23,10c-1.56,2.7,0.28,3.29,0,12c-0.37,11.48-3.75,16.2-1,19c2.83,2.87,8.87,0.42,9,1
			c0.19,0.88-13.49,7.8-31,7c-12.08-0.56-12.94-4.19-22-3c-1.29,0.17-16.05,2.32-25,14c-5.29,6.91-3.38,10.39-10,17
			c-4.7,4.69-9.21,6.33-9,10c0.24,4.14,5.92,6.45,5,9c-0.6,1.66-3.65,2.48-6,2c-3.46-0.71-3.92-3.98-6-4c-3.45-0.03-8.58,8.94-6,15
			c1.98,4.65,6.85,3.72,9,8c2.99,5.94-2.5,15.44-8,21c-5.94,6.01-10.7,6.23-25,12c-6.17,2.49-13.11,5.99-27,13
			c-26.35,13.29-28.66,16.53-30,19c-4.39,8.06-3.3,16.8-8,18c-3.9,1-6.99-4.44-10-3c-3.08,1.47-4.05,9.18-1,14
			c2.35,3.71,5.71,3.37,7,7c1.38,3.87-1.47,6.05-1,9c1.49,9.42,35.44,6.97,37,15c0.49,2.54-2.59,5.69-5,7c-4.16,2.26-8.82,0.33-9,1
			c-0.24,0.88,8.19,2.58,16,8c7.8,5.42,5.77,8.45,12,12c10.61,6.06,19.31,0.53,25,7c3.37,3.84,0.71,6.23,4,11
			c5.13,7.45,13.38,4.19,25,11c10.05,5.89,16.87,15.94,15,19c-1.38,2.25-7-0.09-8,2C748.02,699.85,753.97,707.46,761.21,708.35z"/>
		<path class="st4" d="M1348.21,641.35c-3.77-0.43-10.21-1.51-16,2c-1.3,0.79-5.08,3.08-5,6c0.09,3.25,4.9,4.43,15,11
			c6.35,4.13,5.72,4.49,10,7c7,4.1,13.13,5.74,18,7c8.61,2.23,15.41,2.49,29,3c14.73,0.55,16.81-0.37,18-1
			c8.66-4.61,13.39-17.07,11-27c-1.24-5.13-5.49-9.42-14-18c-7.33-7.39-9.8-7.88-11-8c-6.39-0.63-7.94,6.53-17,12
			C1372.09,643.88,1351.07,641.68,1348.21,641.35z"/>
		<path class="st4" d="M761.21,710.35c4.88,0.6,6.71-2.28,13-2c4.65,0.21,7.67,1.97,10,3c12.17,5.39,30.68-0.23,41-6
			c12.84-7.18,9.17-12.26,23-20c12.8-7.16,26.57-8.74,29-9c14.44-1.53,20.58,1.99,26-3c5.23-4.8,1.39-9.79,7-17
			c3.9-5.01,7.22-4.5,22-12c4.31-2.19,8.21-4.46,16-9c13.2-7.69,22.53-14.03,24-15c10.13-6.68,34.47-13.68,94-17
			c13.06,4.72,43.96,15.52,59,18c0.82,0.14,7.01,1.11,8-1c1.21-2.57-6.81-6.59-6-11c0.92-4.99,11.94-3.9,15-11
			c1.97-4.56-0.85-9.04,1-10c1.62-0.84,5.19,1.85,7,5c2.39,4.16,1.58,8.88,1,12c-1.29,6.97-4.21,8.91-3,11
			c1.87,3.22,11.44,3.14,14-1c2.82-4.56-4.32-11.67-2-14c2.01-2.02,10.12,0.54,13,6c2.15,4.08-0.03,7.07,2,9
			c3.13,2.97,9.52-3.03,18-3c8.19,0.03,9.26,5.66,25,15c11.14,6.61,20.18,9.48,29,10c1.82,0.11,11.59,0.68,13-3
			c0.77-2.01-1.61-3.57-1-5c2.01-4.75,29.47,8.83,40-1c5.2-4.85,3.88-13.18,11-16c0.33-0.13,4.34-1.67,6,0c2.1,2.12-1.73,7.22,0,9
			c1.92,1.98,7.57-3.34,17-5c9.51-1.68,11.7,2.33,18,0c7.5-2.78,6.19-9.14,14-16c11.41-10.03,22.03-3.34,28-12
			c1.67-2.43,1.34-3.73,1-26c-0.18-11.97-0.27-17.99,0-20c2.08-15.73,8.37-17.91,7-28c-0.81-5.93-2.97-5.09-8-18
			c-4.73-12.14-2.63-12.42-6-19c-5.89-11.52-16.17-18.21-22-22c-6.61-4.3-6.99-3.11-12-7c-9.22-7.16-8.95-11.98-16-15
			c-6.2-2.65-7.56,0.58-16-2c-6.44-1.97-7.66-4.47-16-9c0,0-7.1-3.86-17-7c-13.35-4.23-19.7-1.52-30-4
			c-19.19-4.62-18.28-11.46-34-16c-25.63-7.4-37.52,8.06-58-2c-3.9-1.92-1.34-1.43-19-17c-30.86-27.2-39.9-29.76-47-30
			c-9.04-0.31-9.48,3.31-18,2c-11.28-1.74-13.94-8.62-30-19c-6.99-4.52-24.91-16.1-31-11c-3,2.51-3.02,8.92-1,13
			c2.5,5.06,7.09,4.42,10,10c2.32,4.45,0.11,6.22,2,11c2.51,6.35,7.46,5.85,13,12c5.69,6.32,6.8,13.87,8,22
			c1.44,9.77,2.28,15.52-1,19c-4.37,4.64-11.89,0.86-33-2c-16.25-2.2-14.43-0.33-37-3c-20.12-2.38-19.77-3.66-27-3
			c-6.04,0.55-11.84,1.95-14-1c-1.29-1.76-0.13-3.5,1-10c0.96-5.52,2.07-12.23,0-19c-0.93-3.06-2-6.55-5-8c-3.2-1.55-6.61,0.18-13,3
			c-9.94,4.38-14.91,6.58-20,8c-3.33,0.93-11.25,3.07-21,2c-9.73-1.07-13.38-4.46-19-2c-4.12,1.8-3.25,4.11-8,8
			c-9.55,7.84-19.31,3.62-23,10c-1.56,2.7,0.28,3.29,0,12c-0.37,11.48-3.75,16.2-1,19c2.83,2.87,8.87,0.42,9,1
			c0.19,0.88-13.49,7.8-31,7c-12.08-0.56-12.94-4.19-22-3c-1.29,0.17-16.05,2.32-25,14c-5.29,6.91-3.38,10.39-10,17
			c-4.7,4.69-9.21,6.33-9,10c0.24,4.14,5.92,6.45,5,9c-0.6,1.66-3.65,2.48-6,2c-3.46-0.71-3.92-3.98-6-4c-3.45-0.03-8.58,8.94-6,15
			c1.98,4.65,6.85,3.72,9,8c2.99,5.94-2.5,15.44-8,21c-5.94,6.01-10.7,6.23-25,12c-6.17,2.49-13.11,5.99-27,13
			c-26.35,13.29-28.66,16.53-30,19c-4.39,8.06-3.3,16.8-8,18c-3.9,1-6.99-4.44-10-3c-3.08,1.47-4.05,9.18-1,14
			c2.35,3.71,5.71,3.37,7,7c1.38,3.87-1.47,6.05-1,9c1.49,9.42,35.44,6.97,37,15c0.49,2.54-2.59,5.69-5,7c-4.16,2.26-8.82,0.33-9,1
			c-0.24,0.88,8.19,2.58,16,8c7.8,5.42,5.77,8.45,12,12c10.61,6.06,19.31,0.53,25,7c3.37,3.84,0.71,6.23,4,11
			c5.13,7.45,13.38,4.19,25,11c10.05,5.89,16.87,15.94,15,19c-1.38,2.25-7-0.09-8,2C748.02,701.85,753.97,709.46,761.21,710.35z"/>
		<path class="st4" d="M1348.21,643.35c-3.77-0.43-10.21-1.51-16,2c-1.3,0.79-5.08,3.08-5,6c0.09,3.25,4.9,4.43,15,11
			c6.35,4.13,5.72,4.49,10,7c7,4.1,13.13,5.74,18,7c8.61,2.23,15.41,2.49,29,3c14.73,0.55,16.81-0.37,18-1
			c8.66-4.61,13.39-17.07,11-27c-1.24-5.13-5.49-9.42-14-18c-7.33-7.39-9.8-7.88-11-8c-6.39-0.63-7.94,6.53-17,12
			C1372.09,645.88,1351.07,643.68,1348.21,643.35z"/>
		<path class="st4" d="M761.21,711.35c4.88,0.6,6.71-2.28,13-2c4.65,0.21,7.67,1.97,10,3c12.17,5.39,30.68-0.23,41-6
			c12.84-7.18,9.17-12.26,23-20c12.8-7.16,26.57-8.74,29-9c14.44-1.53,20.58,1.99,26-3c5.23-4.8,1.39-9.79,7-17
			c3.9-5.01,7.22-4.5,22-12c4.31-2.19,8.21-4.46,16-9c13.2-7.69,22.53-14.03,24-15c10.13-6.68,34.47-13.68,94-17
			c13.06,4.72,43.96,15.52,59,18c0.82,0.14,7.01,1.11,8-1c1.21-2.57-6.81-6.59-6-11c0.92-4.99,11.94-3.9,15-11
			c1.97-4.56-0.85-9.04,1-10c1.62-0.84,5.19,1.85,7,5c2.39,4.16,1.58,8.88,1,12c-1.29,6.97-4.21,8.91-3,11
			c1.87,3.22,11.44,3.14,14-1c2.82-4.56-4.32-11.67-2-14c2.01-2.02,10.12,0.54,13,6c2.15,4.08-0.03,7.07,2,9
			c3.13,2.97,9.52-3.03,18-3c8.19,0.03,9.26,5.66,25,15c11.14,6.61,20.18,9.48,29,10c1.82,0.11,11.59,0.68,13-3
			c0.77-2.01-1.61-3.57-1-5c2.01-4.75,29.47,8.83,40-1c5.2-4.85,3.88-13.18,11-16c0.33-0.13,4.34-1.67,6,0c2.1,2.12-1.73,7.22,0,9
			c1.92,1.98,7.57-3.34,17-5c9.51-1.68,11.7,2.33,18,0c7.5-2.78,6.19-9.14,14-16c11.41-10.03,22.03-3.34,28-12
			c1.67-2.43,1.34-3.73,1-26c-0.18-11.97-0.27-17.99,0-20c2.08-15.73,8.37-17.91,7-28c-0.81-5.93-2.97-5.09-8-18
			c-4.73-12.14-2.63-12.42-6-19c-5.89-11.52-16.17-18.21-22-22c-6.61-4.3-6.99-3.11-12-7c-9.22-7.16-8.95-11.98-16-15
			c-6.2-2.65-7.56,0.58-16-2c-6.44-1.97-7.66-4.47-16-9c0,0-7.1-3.86-17-7c-13.35-4.23-19.7-1.52-30-4
			c-19.19-4.62-18.28-11.46-34-16c-25.63-7.4-37.52,8.06-58-2c-3.9-1.92-1.34-1.43-19-17c-30.86-27.2-39.9-29.76-47-30
			c-9.04-0.31-9.48,3.31-18,2c-11.28-1.74-13.94-8.62-30-19c-6.99-4.52-24.91-16.1-31-11c-3,2.51-3.02,8.92-1,13
			c2.5,5.06,7.09,4.42,10,10c2.32,4.45,0.11,6.22,2,11c2.51,6.35,7.46,5.85,13,12c5.69,6.32,6.8,13.87,8,22
			c1.44,9.77,2.28,15.52-1,19c-4.37,4.64-11.89,0.86-33-2c-16.25-2.2-14.43-0.33-37-3c-20.12-2.38-19.77-3.66-27-3
			c-6.04,0.55-11.84,1.95-14-1c-1.29-1.76-0.13-3.5,1-10c0.96-5.52,2.07-12.23,0-19c-0.93-3.06-2-6.55-5-8c-3.2-1.55-6.61,0.18-13,3
			c-9.94,4.38-14.91,6.58-20,8c-3.33,0.93-11.25,3.07-21,2c-9.73-1.07-13.38-4.46-19-2c-4.12,1.8-3.25,4.11-8,8
			c-9.55,7.84-19.31,3.62-23,10c-1.56,2.7,0.28,3.29,0,12c-0.37,11.48-3.75,16.2-1,19c2.83,2.87,8.87,0.42,9,1
			c0.19,0.88-13.49,7.8-31,7c-12.08-0.56-12.94-4.19-22-3c-1.29,0.17-16.05,2.32-25,14c-5.29,6.91-3.38,10.39-10,17
			c-4.7,4.69-9.21,6.33-9,10c0.24,4.14,5.92,6.45,5,9c-0.6,1.66-3.65,2.48-6,2c-3.46-0.71-3.92-3.98-6-4c-3.45-0.03-8.58,8.94-6,15
			c1.98,4.65,6.85,3.72,9,8c2.99,5.94-2.5,15.44-8,21c-5.94,6.01-10.7,6.23-25,12c-6.17,2.49-13.11,5.99-27,13
			c-26.35,13.29-28.66,16.53-30,19c-4.39,8.06-3.3,16.8-8,18c-3.9,1-6.99-4.44-10-3c-3.08,1.47-4.05,9.18-1,14
			c2.35,3.71,5.71,3.37,7,7c1.38,3.87-1.47,6.05-1,9c1.49,9.42,35.44,6.97,37,15c0.49,2.54-2.59,5.69-5,7c-4.16,2.26-8.82,0.33-9,1
			c-0.24,0.88,8.19,2.58,16,8c7.8,5.42,5.77,8.45,12,12c10.61,6.06,19.31,0.53,25,7c3.37,3.84,0.71,6.23,4,11
			c5.13,7.45,13.38,4.19,25,11c10.05,5.89,16.87,15.94,15,19c-1.38,2.25-7-0.09-8,2C748.02,702.85,753.97,710.46,761.21,711.35z"/>
		<path class="st4" d="M1348.21,644.35c-3.77-0.43-10.21-1.51-16,2c-1.3,0.79-5.08,3.08-5,6c0.09,3.25,4.9,4.43,15,11
			c6.35,4.13,5.72,4.49,10,7c7,4.1,13.13,5.74,18,7c8.61,2.23,15.41,2.49,29,3c14.73,0.55,16.81-0.37,18-1
			c8.66-4.61,13.39-17.07,11-27c-1.24-5.13-5.49-9.42-14-18c-7.33-7.39-9.8-7.88-11-8c-6.39-0.63-7.94,6.53-17,12
			C1372.09,646.88,1351.07,644.68,1348.21,644.35z"/>
		<path class="st4" d="M761.21,712.35c4.88,0.6,6.71-2.28,13-2c4.65,0.21,7.67,1.97,10,3c12.17,5.39,30.68-0.23,41-6
			c12.84-7.18,9.17-12.26,23-20c12.8-7.16,26.57-8.74,29-9c14.44-1.53,20.58,1.99,26-3c5.23-4.8,1.39-9.79,7-17
			c3.9-5.01,7.22-4.5,22-12c4.31-2.19,8.21-4.46,16-9c13.2-7.69,22.53-14.03,24-15c10.13-6.68,34.47-13.68,94-17
			c13.06,4.72,43.96,15.52,59,18c0.82,0.14,7.01,1.11,8-1c1.21-2.57-6.81-6.59-6-11c0.92-4.99,11.94-3.9,15-11
			c1.97-4.56-0.85-9.04,1-10c1.62-0.84,5.19,1.85,7,5c2.39,4.16,1.58,8.88,1,12c-1.29,6.97-4.21,8.91-3,11
			c1.87,3.22,11.44,3.14,14-1c2.82-4.56-4.32-11.67-2-14c2.01-2.02,10.12,0.54,13,6c2.15,4.08-0.03,7.07,2,9
			c3.13,2.97,9.52-3.03,18-3c8.19,0.03,9.26,5.66,25,15c11.14,6.61,20.18,9.48,29,10c1.82,0.11,11.59,0.68,13-3
			c0.77-2.01-1.61-3.57-1-5c2.01-4.75,29.47,8.83,40-1c5.2-4.85,3.88-13.18,11-16c0.33-0.13,4.34-1.67,6,0c2.1,2.12-1.73,7.22,0,9
			c1.92,1.98,7.57-3.34,17-5c9.51-1.68,11.7,2.33,18,0c7.5-2.78,6.19-9.14,14-16c11.41-10.03,22.03-3.34,28-12
			c1.67-2.43,1.34-3.73,1-26c-0.18-11.97-0.27-17.99,0-20c2.08-15.73,8.37-17.91,7-28c-0.81-5.93-2.97-5.09-8-18
			c-4.73-12.14-2.63-12.42-6-19c-5.89-11.52-16.17-18.21-22-22c-6.61-4.3-6.99-3.11-12-7c-9.22-7.16-8.95-11.98-16-15
			c-6.2-2.65-7.56,0.58-16-2c-6.44-1.97-7.66-4.47-16-9c0,0-7.1-3.86-17-7c-13.35-4.23-19.7-1.52-30-4
			c-19.19-4.62-18.28-11.46-34-16c-25.63-7.4-37.52,8.06-58-2c-3.9-1.92-1.34-1.43-19-17c-30.86-27.2-39.9-29.76-47-30
			c-9.04-0.31-9.48,3.31-18,2c-11.28-1.74-13.94-8.62-30-19c-6.99-4.52-24.91-16.1-31-11c-3,2.51-3.02,8.92-1,13
			c2.5,5.06,7.09,4.42,10,10c2.32,4.45,0.11,6.22,2,11c2.51,6.35,7.46,5.85,13,12c5.69,6.32,6.8,13.87,8,22
			c1.44,9.77,2.28,15.52-1,19c-4.37,4.64-11.89,0.86-33-2c-16.25-2.2-14.43-0.33-37-3c-20.12-2.38-19.77-3.66-27-3
			c-6.04,0.55-11.84,1.95-14-1c-1.29-1.76-0.13-3.5,1-10c0.96-5.52,2.07-12.23,0-19c-0.93-3.06-2-6.55-5-8c-3.2-1.55-6.61,0.18-13,3
			c-9.94,4.38-14.91,6.58-20,8c-3.33,0.93-11.25,3.07-21,2c-9.73-1.07-13.38-4.46-19-2c-4.12,1.8-3.25,4.11-8,8
			c-9.55,7.84-19.31,3.62-23,10c-1.56,2.7,0.28,3.29,0,12c-0.37,11.48-3.75,16.2-1,19c2.83,2.87,8.87,0.42,9,1
			c0.19,0.88-13.49,7.8-31,7c-12.08-0.56-12.94-4.19-22-3c-1.29,0.17-16.05,2.32-25,14c-5.29,6.91-3.38,10.39-10,17
			c-4.7,4.69-9.21,6.33-9,10c0.24,4.14,5.92,6.45,5,9c-0.6,1.66-3.65,2.48-6,2c-3.46-0.71-3.92-3.98-6-4c-3.45-0.03-8.58,8.94-6,15
			c1.98,4.65,6.85,3.72,9,8c2.99,5.94-2.5,15.44-8,21c-5.94,6.01-10.7,6.23-25,12c-6.17,2.49-13.11,5.99-27,13
			c-26.35,13.29-28.66,16.53-30,19c-4.39,8.06-3.3,16.8-8,18c-3.9,1-6.99-4.44-10-3c-3.08,1.47-4.05,9.18-1,14
			c2.35,3.71,5.71,3.37,7,7c1.38,3.87-1.47,6.05-1,9c1.49,9.42,35.44,6.97,37,15c0.49,2.54-2.59,5.69-5,7c-4.16,2.26-8.82,0.33-9,1
			c-0.24,0.88,8.19,2.58,16,8c7.8,5.42,5.77,8.45,12,12c10.61,6.06,19.31,0.53,25,7c3.37,3.84,0.71,6.23,4,11
			c5.13,7.45,13.38,4.19,25,11c10.05,5.89,16.87,15.94,15,19c-1.38,2.25-7-0.09-8,2C748.02,703.85,753.97,711.46,761.21,712.35z"/>
		<path class="st4" d="M1348.21,645.35c-3.77-0.43-10.21-1.51-16,2c-1.3,0.79-5.08,3.08-5,6c0.09,3.25,4.9,4.43,15,11
			c6.35,4.13,5.72,4.49,10,7c7,4.1,13.13,5.74,18,7c8.61,2.23,15.41,2.49,29,3c14.73,0.55,16.81-0.37,18-1
			c8.66-4.61,13.39-17.07,11-27c-1.24-5.13-5.49-9.42-14-18c-7.33-7.39-9.8-7.88-11-8c-6.39-0.63-7.94,6.53-17,12
			C1372.09,647.88,1351.07,645.68,1348.21,645.35z"/>
		<path class="st4" d="M761.21,713.35c4.88,0.6,6.71-2.28,13-2c4.65,0.21,7.67,1.97,10,3c12.17,5.39,30.68-0.23,41-6
			c12.84-7.18,9.17-12.26,23-20c12.8-7.16,26.57-8.74,29-9c14.44-1.53,20.58,1.99,26-3c5.23-4.8,1.39-9.79,7-17
			c3.9-5.01,7.22-4.5,22-12c4.31-2.19,8.21-4.46,16-9c13.2-7.69,22.53-14.03,24-15c10.13-6.68,34.47-13.68,94-17
			c13.06,4.72,43.96,15.52,59,18c0.82,0.14,7.01,1.11,8-1c1.21-2.57-6.81-6.59-6-11c0.92-4.99,11.94-3.9,15-11
			c1.97-4.56-0.85-9.04,1-10c1.62-0.84,5.19,1.85,7,5c2.39,4.16,1.58,8.88,1,12c-1.29,6.97-4.21,8.91-3,11
			c1.87,3.22,11.44,3.14,14-1c2.82-4.56-4.32-11.67-2-14c2.01-2.02,10.12,0.54,13,6c2.15,4.08-0.03,7.07,2,9
			c3.13,2.97,9.52-3.03,18-3c8.19,0.03,9.26,5.66,25,15c11.14,6.61,20.18,9.48,29,10c1.82,0.11,11.59,0.68,13-3
			c0.77-2.01-1.61-3.57-1-5c2.01-4.75,29.47,8.83,40-1c5.2-4.85,3.88-13.18,11-16c0.33-0.13,4.34-1.67,6,0c2.1,2.12-1.73,7.22,0,9
			c1.92,1.98,7.57-3.34,17-5c9.51-1.68,11.7,2.33,18,0c7.5-2.78,6.19-9.14,14-16c11.41-10.03,22.03-3.34,28-12
			c1.67-2.43,1.34-3.73,1-26c-0.18-11.97-0.27-17.99,0-20c2.08-15.73,8.37-17.91,7-28c-0.81-5.93-2.97-5.09-8-18
			c-4.73-12.14-2.63-12.42-6-19c-5.89-11.52-16.17-18.21-22-22c-6.61-4.3-6.99-3.11-12-7c-9.22-7.16-8.95-11.98-16-15
			c-6.2-2.65-7.56,0.58-16-2c-6.44-1.97-7.66-4.47-16-9c0,0-7.1-3.86-17-7c-13.35-4.23-19.7-1.52-30-4
			c-19.19-4.62-18.28-11.46-34-16c-25.63-7.4-37.52,8.06-58-2c-3.9-1.92-1.34-1.43-19-17c-30.86-27.2-39.9-29.76-47-30
			c-9.04-0.31-9.48,3.31-18,2c-11.28-1.74-13.94-8.62-30-19c-6.99-4.52-24.91-16.1-31-11c-3,2.51-3.02,8.92-1,13
			c2.5,5.06,7.09,4.42,10,10c2.32,4.45,0.11,6.22,2,11c2.51,6.35,7.46,5.85,13,12c5.69,6.32,6.8,13.87,8,22
			c1.44,9.77,2.28,15.52-1,19c-4.37,4.64-11.89,0.86-33-2c-16.25-2.2-14.43-0.33-37-3c-20.12-2.38-19.77-3.66-27-3
			c-6.04,0.55-11.84,1.95-14-1c-1.29-1.76-0.13-3.5,1-10c0.96-5.52,2.07-12.23,0-19c-0.93-3.06-2-6.55-5-8c-3.2-1.55-6.61,0.18-13,3
			c-9.94,4.38-14.91,6.58-20,8c-3.33,0.93-11.25,3.07-21,2c-9.73-1.07-13.38-4.46-19-2c-4.12,1.8-3.25,4.11-8,8
			c-9.55,7.84-19.31,3.62-23,10c-1.56,2.7,0.28,3.29,0,12c-0.37,11.48-3.75,16.2-1,19c2.83,2.87,8.87,0.42,9,1
			c0.19,0.88-13.49,7.8-31,7c-12.08-0.56-12.94-4.19-22-3c-1.29,0.17-16.05,2.32-25,14c-5.29,6.91-3.38,10.39-10,17
			c-4.7,4.69-9.21,6.33-9,10c0.24,4.14,5.92,6.45,5,9c-0.6,1.66-3.65,2.48-6,2c-3.46-0.71-3.92-3.98-6-4c-3.45-0.03-8.58,8.94-6,15
			c1.98,4.65,6.85,3.72,9,8c2.99,5.94-2.5,15.44-8,21c-5.94,6.01-10.7,6.23-25,12c-6.17,2.49-13.11,5.99-27,13
			c-26.35,13.29-28.66,16.53-30,19c-4.39,8.06-3.3,16.8-8,18c-3.9,1-6.99-4.44-10-3c-3.08,1.47-4.05,9.18-1,14
			c2.35,3.71,5.71,3.37,7,7c1.38,3.87-1.47,6.05-1,9c1.49,9.42,35.44,6.97,37,15c0.49,2.54-2.59,5.69-5,7c-4.16,2.26-8.82,0.33-9,1
			c-0.24,0.88,8.19,2.58,16,8c7.8,5.42,5.77,8.45,12,12c10.61,6.06,19.31,0.53,25,7c3.37,3.84,0.71,6.23,4,11
			c5.13,7.45,13.38,4.19,25,11c10.05,5.89,16.87,15.94,15,19c-1.38,2.25-7-0.09-8,2C748.02,704.85,753.97,712.46,761.21,713.35z"/>
		<path class="st4" d="M1348.21,646.35c-3.77-0.43-10.21-1.51-16,2c-1.3,0.79-5.08,3.08-5,6c0.09,3.25,4.9,4.43,15,11
			c6.35,4.13,5.72,4.49,10,7c7,4.1,13.13,5.74,18,7c8.61,2.23,15.41,2.49,29,3c14.73,0.55,16.81-0.37,18-1
			c8.66-4.61,13.39-17.07,11-27c-1.24-5.13-5.49-9.42-14-18c-7.33-7.39-9.8-7.88-11-8c-6.39-0.63-7.94,6.53-17,12
			C1372.09,648.88,1351.07,646.68,1348.21,646.35z"/>
		<path class="st4" d="M761.21,714.35c4.88,0.6,6.71-2.28,13-2c4.65,0.21,7.67,1.97,10,3c12.17,5.39,30.68-0.23,41-6
			c12.84-7.18,9.17-12.26,23-20c12.8-7.16,26.57-8.74,29-9c14.44-1.53,20.58,1.99,26-3c5.23-4.8,1.39-9.79,7-17
			c3.9-5.01,7.22-4.5,22-12c4.31-2.19,8.21-4.46,16-9c13.2-7.69,22.53-14.03,24-15c10.13-6.68,34.47-13.68,94-17
			c13.06,4.72,43.96,15.52,59,18c0.82,0.14,7.01,1.11,8-1c1.21-2.57-6.81-6.59-6-11c0.92-4.99,11.94-3.9,15-11
			c1.97-4.56-0.85-9.04,1-10c1.62-0.84,5.19,1.85,7,5c2.39,4.16,1.58,8.88,1,12c-1.29,6.97-4.21,8.91-3,11
			c1.87,3.22,11.44,3.14,14-1c2.82-4.56-4.32-11.67-2-14c2.01-2.02,10.12,0.54,13,6c2.15,4.08-0.03,7.07,2,9
			c3.13,2.97,9.52-3.03,18-3c8.19,0.03,9.26,5.66,25,15c11.14,6.61,20.18,9.48,29,10c1.82,0.11,11.59,0.68,13-3
			c0.77-2.01-1.61-3.57-1-5c2.01-4.75,29.47,8.83,40-1c5.2-4.85,3.88-13.18,11-16c0.33-0.13,4.34-1.67,6,0c2.1,2.12-1.73,7.22,0,9
			c1.92,1.98,7.57-3.34,17-5c9.51-1.68,11.7,2.33,18,0c7.5-2.78,6.19-9.14,14-16c11.41-10.03,22.03-3.34,28-12
			c1.67-2.43,1.34-3.73,1-26c-0.18-11.97-0.27-17.99,0-20c2.08-15.73,8.37-17.91,7-28c-0.81-5.93-2.97-5.09-8-18
			c-4.73-12.14-2.63-12.42-6-19c-5.89-11.52-16.17-18.21-22-22c-6.61-4.3-6.99-3.11-12-7c-9.22-7.16-8.95-11.98-16-15
			c-6.2-2.65-7.56,0.58-16-2c-6.44-1.97-7.66-4.47-16-9c0,0-7.1-3.86-17-7c-13.35-4.23-19.7-1.52-30-4
			c-19.19-4.62-18.28-11.46-34-16c-25.63-7.4-37.52,8.06-58-2c-3.9-1.92-1.34-1.43-19-17c-30.86-27.2-39.9-29.76-47-30
			c-9.04-0.31-9.48,3.31-18,2c-11.28-1.74-13.94-8.62-30-19c-6.99-4.52-24.91-16.1-31-11c-3,2.51-3.02,8.92-1,13
			c2.5,5.06,7.09,4.42,10,10c2.32,4.45,0.11,6.22,2,11c2.51,6.35,7.46,5.85,13,12c5.69,6.32,6.8,13.87,8,22
			c1.44,9.77,2.28,15.52-1,19c-4.37,4.64-11.89,0.86-33-2c-16.25-2.2-14.43-0.33-37-3c-20.12-2.38-19.77-3.66-27-3
			c-6.04,0.55-11.84,1.95-14-1c-1.29-1.76-0.13-3.5,1-10c0.96-5.52,2.07-12.23,0-19c-0.93-3.06-2-6.55-5-8c-3.2-1.55-6.61,0.18-13,3
			c-9.94,4.38-14.91,6.58-20,8c-3.33,0.93-11.25,3.07-21,2c-9.73-1.07-13.38-4.46-19-2c-4.12,1.8-3.25,4.11-8,8
			c-9.55,7.84-19.31,3.62-23,10c-1.56,2.7,0.28,3.29,0,12c-0.37,11.48-3.75,16.2-1,19c2.83,2.87,8.87,0.42,9,1
			c0.19,0.88-13.49,7.8-31,7c-12.08-0.56-12.94-4.19-22-3c-1.29,0.17-16.05,2.32-25,14c-5.29,6.91-3.38,10.39-10,17
			c-4.7,4.69-9.21,6.33-9,10c0.24,4.14,5.92,6.45,5,9c-0.6,1.66-3.65,2.48-6,2c-3.46-0.71-3.92-3.98-6-4c-3.45-0.03-8.58,8.94-6,15
			c1.98,4.65,6.85,3.72,9,8c2.99,5.94-2.5,15.44-8,21c-5.94,6.01-10.7,6.23-25,12c-6.17,2.49-13.11,5.99-27,13
			c-26.35,13.29-28.66,16.53-30,19c-4.39,8.06-3.3,16.8-8,18c-3.9,1-6.99-4.44-10-3c-3.08,1.47-4.05,9.18-1,14
			c2.35,3.71,5.71,3.37,7,7c1.38,3.87-1.47,6.05-1,9c1.49,9.42,35.44,6.97,37,15c0.49,2.54-2.59,5.69-5,7c-4.16,2.26-8.82,0.33-9,1
			c-0.24,0.88,8.19,2.58,16,8c7.8,5.42,5.77,8.45,12,12c10.61,6.06,19.31,0.53,25,7c3.37,3.84,0.71,6.23,4,11
			c5.13,7.45,13.38,4.19,25,11c10.05,5.89,16.87,15.94,15,19c-1.38,2.25-7-0.09-8,2C748.02,705.85,753.97,713.46,761.21,714.35z"/>
		<path class="st4" d="M1348.21,647.35c-3.77-0.43-10.21-1.51-16,2c-1.3,0.79-5.08,3.08-5,6c0.09,3.25,4.9,4.43,15,11
			c6.35,4.13,5.72,4.49,10,7c7,4.1,13.13,5.74,18,7c8.61,2.23,15.41,2.49,29,3c14.73,0.55,16.81-0.37,18-1
			c8.66-4.61,13.39-17.07,11-27c-1.24-5.13-5.49-9.42-14-18c-7.33-7.39-9.8-7.88-11-8c-6.39-0.63-7.94,6.53-17,12
			C1372.09,649.88,1351.07,647.68,1348.21,647.35z"/>
		<path class="st4" d="M761.21,715.35c4.88,0.6,6.71-2.28,13-2c4.65,0.21,7.67,1.97,10,3c12.17,5.39,30.68-0.23,41-6
			c12.84-7.18,9.17-12.26,23-20c12.8-7.16,26.57-8.74,29-9c14.44-1.53,20.58,1.99,26-3c5.23-4.8,1.39-9.79,7-17
			c3.9-5.01,7.22-4.5,22-12c4.31-2.19,8.21-4.46,16-9c13.2-7.69,22.53-14.03,24-15c10.13-6.68,34.47-13.68,94-17
			c13.06,4.72,43.96,15.52,59,18c0.82,0.14,7.01,1.11,8-1c1.21-2.57-6.81-6.59-6-11c0.92-4.99,11.94-3.9,15-11
			c1.97-4.56-0.85-9.04,1-10c1.62-0.84,5.19,1.85,7,5c2.39,4.16,1.58,8.88,1,12c-1.29,6.97-4.21,8.91-3,11
			c1.87,3.22,11.44,3.14,14-1c2.82-4.56-4.32-11.67-2-14c2.01-2.02,10.12,0.54,13,6c2.15,4.08-0.03,7.07,2,9
			c3.13,2.97,9.52-3.03,18-3c8.19,0.03,9.26,5.66,25,15c11.14,6.61,20.18,9.48,29,10c1.82,0.11,11.59,0.68,13-3
			c0.77-2.01-1.61-3.57-1-5c2.01-4.75,29.47,8.83,40-1c5.2-4.85,3.88-13.18,11-16c0.33-0.13,4.34-1.67,6,0c2.1,2.12-1.73,7.22,0,9
			c1.92,1.98,7.57-3.34,17-5c9.51-1.68,11.7,2.33,18,0c7.5-2.78,6.19-9.14,14-16c11.41-10.03,22.03-3.34,28-12
			c1.67-2.43,1.34-3.73,1-26c-0.18-11.97-0.27-17.99,0-20c2.08-15.73,8.37-17.91,7-28c-0.81-5.93-2.97-5.09-8-18
			c-4.73-12.14-2.63-12.42-6-19c-5.89-11.52-16.17-18.21-22-22c-6.61-4.3-6.99-3.11-12-7c-9.22-7.16-8.95-11.98-16-15
			c-6.2-2.65-7.56,0.58-16-2c-6.44-1.97-7.66-4.47-16-9c0,0-7.1-3.86-17-7c-13.35-4.23-19.7-1.52-30-4
			c-19.19-4.62-18.28-11.46-34-16c-25.63-7.4-37.52,8.06-58-2c-3.9-1.92-1.34-1.43-19-17c-30.86-27.2-39.9-29.76-47-30
			c-9.04-0.31-9.48,3.31-18,2c-11.28-1.74-13.94-8.62-30-19c-6.99-4.52-24.91-16.1-31-11c-3,2.51-3.02,8.92-1,13
			c2.5,5.06,7.09,4.42,10,10c2.32,4.45,0.11,6.22,2,11c2.51,6.35,7.46,5.85,13,12c5.69,6.32,6.8,13.87,8,22
			c1.44,9.77,2.28,15.52-1,19c-4.37,4.64-11.89,0.86-33-2c-16.25-2.2-14.43-0.33-37-3c-20.12-2.38-19.77-3.66-27-3
			c-6.04,0.55-11.84,1.95-14-1c-1.29-1.76-0.13-3.5,1-10c0.96-5.52,2.07-12.23,0-19c-0.93-3.06-2-6.55-5-8c-3.2-1.55-6.61,0.18-13,3
			c-9.94,4.38-14.91,6.58-20,8c-3.33,0.93-11.25,3.07-21,2c-9.73-1.07-13.38-4.46-19-2c-4.12,1.8-3.25,4.11-8,8
			c-9.55,7.84-19.31,3.62-23,10c-1.56,2.7,0.28,3.29,0,12c-0.37,11.48-3.75,16.2-1,19c2.83,2.87,8.87,0.42,9,1
			c0.19,0.88-13.49,7.8-31,7c-12.08-0.56-12.94-4.19-22-3c-1.29,0.17-16.05,2.32-25,14c-5.29,6.91-3.38,10.39-10,17
			c-4.7,4.69-9.21,6.33-9,10c0.24,4.14,5.92,6.45,5,9c-0.6,1.66-3.65,2.48-6,2c-3.46-0.71-3.92-3.98-6-4c-3.45-0.03-8.58,8.94-6,15
			c1.98,4.65,6.85,3.72,9,8c2.99,5.94-2.5,15.44-8,21c-5.94,6.01-10.7,6.23-25,12c-6.17,2.49-13.11,5.99-27,13
			c-26.35,13.29-28.66,16.53-30,19c-4.39,8.06-3.3,16.8-8,18c-3.9,1-6.99-4.44-10-3c-3.08,1.47-4.05,9.18-1,14
			c2.35,3.71,5.71,3.37,7,7c1.38,3.87-1.47,6.05-1,9c1.49,9.42,35.44,6.97,37,15c0.49,2.54-2.59,5.69-5,7c-4.16,2.26-8.82,0.33-9,1
			c-0.24,0.88,8.19,2.58,16,8c7.8,5.42,5.77,8.45,12,12c10.61,6.06,19.31,0.53,25,7c3.37,3.84,0.71,6.23,4,11
			c5.13,7.45,13.38,4.19,25,11c10.05,5.89,16.87,15.94,15,19c-1.38,2.25-7-0.09-8,2C748.02,706.85,753.97,714.46,761.21,715.35z"/>
		<path class="st4" d="M1348.21,648.35c-3.77-0.43-10.21-1.51-16,2c-1.3,0.79-5.08,3.08-5,6c0.09,3.25,4.9,4.43,15,11
			c6.35,4.13,5.72,4.49,10,7c7,4.1,13.13,5.74,18,7c8.61,2.23,15.41,2.49,29,3c14.73,0.55,16.81-0.37,18-1
			c8.66-4.61,13.39-17.07,11-27c-1.24-5.13-5.49-9.42-14-18c-7.33-7.39-9.8-7.88-11-8c-6.39-0.63-7.94,6.53-17,12
			C1372.09,650.88,1351.07,648.68,1348.21,648.35z"/>
		<path class="st4" d="M761.21,707.35c4.88,0.6,6.71-2.28,13-2c4.65,0.21,7.67,1.97,10,3c12.17,5.39,30.68-0.23,41-6
			c12.84-7.18,9.17-12.26,23-20c12.8-7.16,26.57-8.74,29-9c14.44-1.53,20.58,1.99,26-3c5.23-4.8,1.39-9.79,7-17
			c3.9-5.01,7.22-4.5,22-12c4.31-2.19,8.21-4.46,16-9c13.2-7.69,22.53-14.03,24-15c10.13-6.68,34.47-13.68,94-17
			c13.06,4.72,43.96,15.52,59,18c0.82,0.14,7.01,1.11,8-1c1.21-2.57-6.81-6.59-6-11c0.92-4.99,11.94-3.9,15-11
			c1.97-4.56-0.85-9.04,1-10c1.62-0.84,5.19,1.85,7,5c2.39,4.16,1.58,8.88,1,12c-1.29,6.97-4.21,8.91-3,11
			c1.87,3.22,11.44,3.14,14-1c2.82-4.56-4.32-11.67-2-14c2.01-2.02,10.12,0.54,13,6c2.15,4.08-0.03,7.07,2,9
			c3.13,2.97,9.52-3.03,18-3c8.19,0.03,9.26,5.66,25,15c11.14,6.61,20.18,9.48,29,10c1.82,0.11,11.59,0.68,13-3
			c0.77-2.01-1.61-3.57-1-5c2.01-4.75,29.47,8.83,40-1c5.2-4.85,3.88-13.18,11-16c0.33-0.13,4.34-1.67,6,0c2.1,2.12-1.73,7.22,0,9
			c1.92,1.98,7.57-3.34,17-5c9.51-1.68,11.7,2.33,18,0c7.5-2.78,6.19-9.14,14-16c11.41-10.03,22.03-3.34,28-12
			c1.67-2.43,1.34-3.73,1-26c-0.18-11.97-0.27-17.99,0-20c2.08-15.73,8.37-17.91,7-28c-0.81-5.93-2.97-5.09-8-18
			c-4.73-12.14-2.63-12.42-6-19c-5.89-11.52-16.17-18.21-22-22c-6.61-4.3-6.99-3.11-12-7c-9.22-7.16-8.95-11.98-16-15
			c-6.2-2.65-7.56,0.58-16-2c-6.44-1.97-7.66-4.47-16-9c0,0-7.1-3.86-17-7c-13.35-4.23-19.7-1.52-30-4
			c-19.19-4.62-18.28-11.46-34-16c-25.63-7.4-37.52,8.06-58-2c-3.9-1.92-1.34-1.43-19-17c-30.86-27.2-39.9-29.76-47-30
			c-9.04-0.31-9.48,3.31-18,2c-11.28-1.74-13.94-8.62-30-19c-6.99-4.52-24.91-16.1-31-11c-3,2.51-3.02,8.92-1,13
			c2.5,5.06,7.09,4.42,10,10c2.32,4.45,0.11,6.22,2,11c2.51,6.35,7.46,5.85,13,12c5.69,6.32,6.8,13.87,8,22
			c1.44,9.77,2.28,15.52-1,19c-4.37,4.64-11.89,0.86-33-2c-16.25-2.2-14.43-0.33-37-3c-20.12-2.38-19.77-3.66-27-3
			c-6.04,0.55-11.84,1.95-14-1c-1.29-1.76-0.13-3.5,1-10c0.96-5.52,2.07-12.23,0-19c-0.93-3.06-2-6.55-5-8c-3.2-1.55-6.61,0.18-13,3
			c-9.94,4.38-14.91,6.58-20,8c-3.33,0.93-11.25,3.07-21,2c-9.73-1.07-13.38-4.46-19-2c-4.12,1.8-3.25,4.11-8,8
			c-9.55,7.84-19.31,3.62-23,10c-1.56,2.7,0.28,3.29,0,12c-0.37,11.48-3.75,16.2-1,19c2.83,2.87,8.87,0.42,9,1
			c0.19,0.88-13.49,7.8-31,7c-12.08-0.56-12.94-4.19-22-3c-1.29,0.17-16.05,2.32-25,14c-5.29,6.91-3.38,10.39-10,17
			c-4.7,4.69-9.21,6.33-9,10c0.24,4.14,5.92,6.45,5,9c-0.6,1.66-3.65,2.48-6,2c-3.46-0.71-3.92-3.98-6-4c-3.45-0.03-8.58,8.94-6,15
			c1.98,4.65,6.85,3.72,9,8c2.99,5.94-2.5,15.44-8,21c-5.94,6.01-10.7,6.23-25,12c-6.17,2.49-13.11,5.99-27,13
			c-26.35,13.29-28.66,16.53-30,19c-4.39,8.06-3.3,16.8-8,18c-3.9,1-6.99-4.44-10-3c-3.08,1.47-4.05,9.18-1,14
			c2.35,3.71,5.71,3.37,7,7c1.38,3.87-1.47,6.05-1,9c1.49,9.42,35.44,6.97,37,15c0.49,2.54-2.59,5.69-5,7c-4.16,2.26-8.82,0.33-9,1
			c-0.24,0.88,8.19,2.58,16,8c7.8,5.42,5.77,8.45,12,12c10.61,6.06,19.31,0.53,25,7c3.37,3.84,0.71,6.23,4,11
			c5.13,7.45,13.38,4.19,25,11c10.05,5.89,16.87,15.94,15,19c-1.38,2.25-7-0.09-8,2C748.02,698.85,753.97,706.46,761.21,707.35z"/>
		<path class="st4" d="M1348.21,640.35c-3.77-0.43-10.21-1.51-16,2c-1.3,0.79-5.08,3.08-5,6c0.09,3.25,4.9,4.43,15,11
			c6.35,4.13,5.72,4.49,10,7c7,4.1,13.13,5.74,18,7c8.61,2.23,15.41,2.49,29,3c14.73,0.55,16.81-0.37,18-1
			c8.66-4.61,13.39-17.07,11-27c-1.24-5.13-5.49-9.42-14-18c-7.33-7.39-9.8-7.88-11-8c-6.39-0.63-7.94,6.53-17,12
			C1372.09,642.88,1351.07,640.68,1348.21,640.35z"/>
		<path class="st4" d="M761.21,708.95c4.88,0.6,6.71-2.28,13-2c4.65,0.21,7.67,1.97,10,3c12.17,5.39,30.68-0.23,41-6
			c12.84-7.18,9.17-12.26,23-20c12.8-7.16,26.57-8.74,29-9c14.44-1.53,20.58,1.99,26-3c5.23-4.8,1.39-9.79,7-17
			c3.9-5.01,7.22-4.5,22-12c4.31-2.19,8.21-4.46,16-9c13.2-7.69,22.53-14.03,24-15c10.13-6.68,34.47-13.68,94-17
			c13.06,4.72,43.96,15.52,59,18c0.82,0.14,7.01,1.11,8-1c1.21-2.57-6.81-6.59-6-11c0.92-4.99,11.94-3.9,15-11
			c1.97-4.56-0.85-9.04,1-10c1.62-0.84,5.19,1.85,7,5c2.39,4.16,1.58,8.88,1,12c-1.29,6.97-4.21,8.91-3,11
			c1.87,3.22,11.44,3.14,14-1c2.82-4.56-4.32-11.67-2-14c2.01-2.02,10.12,0.54,13,6c2.15,4.08-0.03,7.07,2,9
			c3.13,2.97,9.52-3.03,18-3c8.19,0.03,9.26,5.66,25,15c11.14,6.61,20.18,9.48,29,10c1.82,0.11,11.59,0.68,13-3
			c0.77-2.01-1.61-3.57-1-5c2.01-4.75,29.47,8.83,40-1c5.2-4.85,3.88-13.18,11-16c0.33-0.13,4.34-1.67,6,0c2.1,2.12-1.73,7.22,0,9
			c1.92,1.98,7.57-3.34,17-5c9.51-1.68,11.7,2.33,18,0c7.5-2.78,6.19-9.14,14-16c11.41-10.03,22.03-3.34,28-12
			c1.67-2.43,1.34-3.73,1-26c-0.18-11.97-0.27-17.99,0-20c2.08-15.73,8.37-17.91,7-28c-0.81-5.93-2.97-5.09-8-18
			c-4.73-12.14-2.63-12.42-6-19c-5.89-11.52-16.17-18.21-22-22c-6.61-4.3-6.99-3.11-12-7c-9.22-7.16-8.95-11.98-16-15
			c-6.2-2.65-7.56,0.58-16-2c-6.44-1.97-7.66-4.47-16-9c0,0-7.1-3.86-17-7c-13.35-4.23-19.7-1.52-30-4
			c-19.19-4.62-18.28-11.46-34-16c-25.63-7.4-37.52,8.06-58-2c-3.9-1.92-1.34-1.43-19-17c-30.86-27.2-39.9-29.76-47-30
			c-9.04-0.31-9.48,3.31-18,2c-11.28-1.74-13.94-8.62-30-19c-6.99-4.52-24.91-16.1-31-11c-3,2.51-3.02,8.92-1,13
			c2.5,5.06,7.09,4.42,10,10c2.32,4.45,0.11,6.22,2,11c2.51,6.35,7.46,5.85,13,12c5.69,6.32,6.8,13.87,8,22
			c1.44,9.77,2.28,15.52-1,19c-4.37,4.64-11.89,0.86-33-2c-16.25-2.2-14.43-0.33-37-3c-20.12-2.38-19.77-3.66-27-3
			c-6.04,0.55-11.84,1.95-14-1c-1.29-1.76-0.13-3.5,1-10c0.96-5.52,2.07-12.23,0-19c-0.93-3.06-2-6.55-5-8c-3.2-1.55-6.61,0.18-13,3
			c-9.94,4.38-14.91,6.58-20,8c-3.33,0.93-11.25,3.07-21,2c-9.73-1.07-13.38-4.46-19-2c-4.12,1.8-3.25,4.11-8,8
			c-9.55,7.84-19.31,3.62-23,10c-1.56,2.7,0.28,3.29,0,12c-0.37,11.48-3.75,16.2-1,19c2.83,2.87,8.87,0.42,9,1
			c0.19,0.88-13.49,7.8-31,7c-12.08-0.56-12.94-4.19-22-3c-1.29,0.17-16.05,2.32-25,14c-5.29,6.91-3.38,10.39-10,17
			c-4.7,4.69-9.21,6.33-9,10c0.24,4.14,5.92,6.45,5,9c-0.6,1.66-3.65,2.48-6,2c-3.46-0.71-3.92-3.98-6-4c-3.45-0.03-8.58,8.94-6,15
			c1.98,4.65,6.85,3.72,9,8c2.99,5.94-2.5,15.44-8,21c-5.94,6.01-10.7,6.23-25,12c-6.17,2.49-13.11,5.99-27,13
			c-26.35,13.29-28.66,16.53-30,19c-4.39,8.06-3.3,16.8-8,18c-3.9,1-6.99-4.44-10-3c-3.08,1.47-4.05,9.18-1,14
			c2.35,3.71,5.71,3.37,7,7c1.38,3.87-1.47,6.05-1,9c1.49,9.42,35.44,6.97,37,15c0.49,2.54-2.59,5.69-5,7c-4.16,2.26-8.82,0.33-9,1
			c-0.24,0.88,8.19,2.58,16,8c7.8,5.42,5.77,8.45,12,12c10.61,6.06,19.31,0.53,25,7c3.37,3.84,0.71,6.23,4,11
			c5.13,7.45,13.38,4.19,25,11c10.05,5.89,16.87,15.94,15,19c-1.38,2.25-7-0.09-8,2C748.02,700.44,753.97,708.06,761.21,708.95z"/>
		<path class="st4" d="M1348.21,640.95c-3.77-0.43-10.21-1.51-16,2c-1.3,0.79-5.08,3.08-5,6c0.09,3.25,4.9,4.43,15,11
			c6.35,4.13,5.72,4.49,10,7c7,4.1,13.13,5.74,18,7c8.61,2.23,15.41,2.49,29,3c14.73,0.55,16.81-0.37,18-1
			c8.66-4.61,13.39-17.07,11-27c-1.24-5.13-5.49-9.42-14-18c-7.33-7.39-9.8-7.88-11-8c-6.39-0.63-7.94,6.53-17,12
			C1372.09,643.48,1351.07,641.28,1348.21,640.95z"/>
		<polygon class="st4" points="660,623.35 660,634.35 667.48,637.6 665.99,627.97 663.74,624.69 		"/>
		<path class="st5" d="M761,704.35c4.88,0.6,6.71-2.28,13-2c4.65,0.21,7.67,1.97,10,3c12.17,5.39,30.68-0.23,41-6
			c12.84-7.18,9.17-12.26,23-20c12.8-7.16,26.57-8.74,29-9c14.44-1.53,20.58,1.99,26-3c5.23-4.8,1.39-9.79,7-17
			c3.9-5.01,7.22-4.5,22-12c4.31-2.19,8.21-4.46,16-9c13.2-7.69,22.53-14.03,24-15c10.13-6.68,34.47-13.68,94-17
			c13.06,4.72,43.96,15.52,59,18c0.82,0.14,7.01,1.11,8-1c1.21-2.57-6.81-6.59-6-11c0.92-4.99,11.94-3.9,15-11
			c1.97-4.56-0.85-9.04,1-10c1.62-0.84,5.19,1.85,7,5c2.39,4.16,1.58,8.88,1,12c-1.29,6.97-4.21,8.91-3,11
			c1.87,3.22,11.44,3.14,14-1c2.82-4.56-4.32-11.67-2-14c2.01-2.02,10.12,0.54,13,6c2.15,4.08-0.03,7.07,2,9
			c3.13,2.97,9.52-3.03,18-3c8.19,0.03,9.26,5.66,25,15c11.14,6.61,20.18,9.48,29,10c1.82,0.11,11.59,0.68,13-3
			c0.77-2.01-1.61-3.57-1-5c2.01-4.75,29.47,8.83,40-1c5.2-4.85,3.88-13.18,11-16c0.33-0.13,4.34-1.67,6,0c2.1,2.12-1.73,7.22,0,9
			c1.92,1.98,7.57-3.34,17-5c9.51-1.68,11.7,2.33,18,0c7.5-2.78,6.19-9.14,14-16c11.41-10.03,22.03-3.34,28-12
			c1.67-2.43,1.34-3.73,1-26c-0.18-11.97-0.27-17.99,0-20c2.08-15.73,8.37-17.91,7-28c-0.81-5.93-2.97-5.09-8-18
			c-4.73-12.14-2.63-12.42-6-19c-5.89-11.52-16.17-18.21-22-22c-6.61-4.3-6.99-3.11-12-7c-9.22-7.16-8.95-11.98-16-15
			c-6.2-2.65-7.56,0.58-16-2c-6.44-1.97-7.66-4.47-16-9c0,0-7.1-3.86-17-7c-13.35-4.23-19.7-1.52-30-4
			c-19.19-4.62-18.28-11.46-34-16c-25.63-7.4-37.52,8.06-58-2c-3.9-1.92-1.34-1.43-19-17c-30.86-27.2-39.9-29.76-47-30
			c-9.04-0.31-9.48,3.31-18,2c-11.28-1.74-13.94-8.62-30-19c-6.99-4.52-24.91-16.1-31-11c-3,2.51-3.02,8.92-1,13
			c2.5,5.06,7.09,4.42,10,10c2.32,4.45,0.11,6.22,2,11c2.51,6.35,7.46,5.85,13,12c5.69,6.32,6.8,13.87,8,22
			c1.44,9.77,2.28,15.52-1,19c-4.37,4.64-11.89,0.86-33-2c-16.25-2.2-14.43-0.33-37-3c-20.12-2.38-19.77-3.66-27-3
			c-6.04,0.55-11.84,1.95-14-1c-1.29-1.76-0.13-3.5,1-10c0.96-5.52,2.07-12.23,0-19c-0.93-3.06-2-6.55-5-8c-3.2-1.55-6.61,0.18-13,3
			c-9.94,4.38-14.91,6.58-20,8c-3.33,0.93-11.25,3.07-21,2c-9.73-1.07-13.38-4.46-19-2c-4.12,1.8-3.25,4.11-8,8
			c-9.55,7.84-19.31,3.62-23,10c-1.56,2.7,0.28,3.29,0,12c-0.37,11.48-3.75,16.2-1,19c2.83,2.87,8.87,0.42,9,1
			c0.19,0.88-13.49,7.8-31,7c-12.08-0.56-12.94-4.19-22-3c-1.29,0.17-16.05,2.32-25,14c-5.29,6.91-3.38,10.39-10,17
			c-4.7,4.69-9.21,6.33-9,10c0.24,4.14,5.92,6.45,5,9c-0.6,1.66-3.65,2.48-6,2c-3.46-0.71-3.92-3.98-6-4c-3.45-0.03-8.58,8.94-6,15
			c1.98,4.65,6.85,3.72,9,8c2.99,5.94-2.5,15.44-8,21c-5.94,6.01-10.7,6.23-25,12c-6.17,2.49-13.11,5.99-27,13
			c-26.35,13.29-28.66,16.53-30,19c-4.39,8.06-3.3,16.8-8,18c-3.9,1-6.99-4.44-10-3c-3.08,1.47-4.05,9.18-1,14
			c2.35,3.71,5.71,3.37,7,7c1.38,3.87-1.47,6.05-1,9c1.49,9.42,35.44,6.97,37,15c0.49,2.54-2.59,5.69-5,7c-4.16,2.26-8.82,0.33-9,1
			c-0.24,0.88,8.19,2.58,16,8c7.8,5.42,5.77,8.45,12,12c10.61,6.06,19.31,0.53,25,7c3.37,3.84,0.71,6.23,4,11
			c5.13,7.45,13.38,4.19,25,11c10.05,5.89,16.87,15.94,15,19c-1.38,2.25-7-0.09-8,2C747.81,695.84,753.75,703.46,761,704.35z"/>
		<path class="st5" d="M1348,637.35c-3.77-0.43-10.21-1.51-16,2c-1.3,0.79-5.08,3.08-5,6c0.09,3.25,4.9,4.43,15,11
			c6.35,4.13,5.72,4.49,10,7c7,4.1,13.13,5.74,18,7c8.61,2.23,15.41,2.49,29,3c14.73,0.55,16.81-0.37,18-1
			c8.66-4.61,13.39-17.07,11-27c-1.24-5.13-5.49-9.42-14-18c-7.33-7.39-9.8-7.88-11-8c-6.39-0.63-7.94,6.53-17,12
			C1371.87,639.88,1350.86,637.68,1348,637.35z"/>
	</g>
</g>
<g id="Layer_9">
	<g>
		<polyline class="st6" points="1222.04,491.69 1319.95,448.23 1227.84,504.75 		"/>
		<polyline class="st6" points="1222.04,491.69 1319.95,448.23 1216.25,478.64 		"/>
		<circle class="st6" cx="1205" cy="499.82" r="24.99"/>
		<path class="st6" d="M1207.98,475.42c-0.76-0.32-1.36-0.47-1.35-0.51c0.04-0.14,6.3,0.42,11.73,3.66c4.7,2.81,7.29,6.73,8.34,8.55
			c5.45,9.46,2.33,19.36,1.92,20.59c-2.73,8.2-9.65,14.86-17.56,16.69c-4.55,1.05-8.77,0.36-10.01,0.14
			c-5.66-0.98-9.46-3.54-9.45-3.57c0.1-0.23,2.59,0.87,4.98,1.11c8.26,0.84,19.73-8.18,22.26-20.12c0,0,2.2-10.39-5.13-21.29
			C1212.8,479.32,1211.05,476.72,1207.98,475.42z"/>
	</g>
	<path class="st7" d="M729.55,640c4.88,0.6,6.71-2.28,13-2c4.65,0.21,7.67,1.97,10,3c12.17,5.39,30.68-0.23,41-6
		c12.84-7.18,9.17-12.26,23-20c12.8-7.16,26.57-8.74,29-9c14.44-1.53,20.58,1.99,26-3c5.23-4.8,1.39-9.79,7-17
		c3.9-5.01,7.22-4.5,22-12c4.31-2.19,8.21-4.46,16-9c13.2-7.69,22.53-14.03,24-15c10.13-6.68,34.47-13.68,94-17
		c13.06,4.72,43.96,15.52,59,18c0.82,0.14,7.01,1.11,8-1c1.21-2.57-6.81-6.59-6-11c0.92-4.99,11.94-3.9,15-11
		c1.97-4.56-0.85-9.04,1-10c1.62-0.84,5.19,1.85,7,5c2.39,4.16,1.58,8.88,1,12c-1.29,6.97-4.21,8.91-3,11c1.87,3.22,11.44,3.14,14-1
		c2.82-4.56-4.32-11.67-2-14c2.01-2.02,10.12,0.54,13,6c2.15,4.08-0.03,7.07,2,9c3.13,2.97,9.52-3.03,18-3
		c8.19,0.03,9.26,5.66,25,15c11.14,6.61,20.18,9.48,29,10c1.82,0.11,11.59,0.68,13-3c0.77-2.01-1.61-3.57-1-5
		c2.01-4.75,29.47,8.83,40-1c5.2-4.85,3.88-13.18,11-16c0.33-0.13,4.34-1.67,6,0c2.1,2.12-1.73,7.22,0,9c1.92,1.98,7.57-3.34,17-5
		c9.51-1.68,11.7,2.33,18,0c7.5-2.78,6.19-9.14,14-16c11.41-10.03,22.03-3.34,28-12c1.67-2.43,1.34-3.73,1-26
		c-0.18-11.97-0.27-17.99,0-20c2.08-15.73,8.37-17.91,7-28c-0.81-5.93-2.97-5.09-8-18c-4.73-12.14-2.63-12.42-6-19
		c-5.89-11.52-16.17-18.21-22-22c-6.61-4.3-6.99-3.11-12-7c-9.22-7.16-8.95-11.98-16-15c-6.2-2.65-7.56,0.58-16-2
		c-6.44-1.97-7.66-4.47-16-9c0,0-7.1-3.86-17-7c-13.35-4.23-19.7-1.52-30-4c-19.19-4.62-18.28-11.46-34-16
		c-25.63-7.4-37.52,8.06-58-2c-3.9-1.92-1.34-1.43-19-17c-30.86-27.2-39.9-29.76-47-30c-9.04-0.31-9.48,3.31-18,2
		c-11.28-1.74-13.94-8.62-30-19c-6.99-4.52-24.91-16.1-31-11c-3,2.51-3.02,8.92-1,13c2.5,5.06,7.09,4.42,10,10
		c2.32,4.45,0.11,6.22,2,11c2.51,6.35,7.46,5.85,13,12c5.69,6.32,6.8,13.87,8,22c1.44,9.77,2.28,15.52-1,19
		c-4.37,4.64-11.89,0.86-33-2c-16.25-2.2-14.43-0.33-37-3c-20.12-2.38-19.77-3.66-27-3c-6.04,0.55-11.84,1.95-14-1
		c-1.29-1.76-0.13-3.5,1-10c0.96-5.52,2.07-12.23,0-19c-0.93-3.06-2-6.55-5-8c-3.2-1.55-6.61,0.18-13,3c-9.94,4.38-14.91,6.58-20,8
		c-3.33,0.93-11.25,3.07-21,2c-9.73-1.07-13.38-4.46-19-2c-4.12,1.8-3.25,4.11-8,8c-9.55,7.84-19.31,3.62-23,10
		c-1.56,2.7,0.28,3.29,0,12c-0.37,11.48-3.75,16.2-1,19c2.83,2.87,8.87,0.42,9,1c0.19,0.88-13.49,7.8-31,7
		c-12.08-0.56-12.94-4.19-22-3c-1.29,0.17-16.05,2.32-25,14c-5.29,6.91-3.38,10.39-10,17c-4.7,4.69-9.21,6.33-9,10
		c0.24,4.14,5.92,6.45,5,9c-0.6,1.66-3.65,2.48-6,2c-3.46-0.71-3.92-3.98-6-4c-3.45-0.03-8.58,8.94-6,15c1.98,4.65,6.85,3.72,9,8
		c2.99,5.94-2.5,15.44-8,21c-5.94,6.01-10.7,6.23-25,12c-6.17,2.49-13.11,5.99-27,13c-26.35,13.29-28.66,16.53-30,19
		c-4.39,8.06-3.3,16.8-8,18c-3.9,1-6.99-4.44-10-3c-3.08,1.47-4.05,9.18-1,14c2.35,3.71,5.71,3.37,7,7c1.38,3.87-1.47,6.05-1,9
		c1.49,9.42,35.44,6.97,37,15c0.49,2.54-2.59,5.69-5,7c-4.16,2.26-8.82,0.33-9,1c-0.24,0.88,8.19,2.58,16,8
		c7.8,5.42,5.77,8.45,12,12c10.61,6.06,19.31,0.53,25,7c3.37,3.84,0.71,6.23,4,11c5.13,7.45,13.38,4.19,25,11
		c10.05,5.89,16.87,15.94,15,19c-1.38,2.25-7-0.09-8,2C716.35,631.5,722.3,639.11,729.55,640z"/>
</g>
<g id="Layer_7">
</g>
<g id="Layer_6">
	<g>
		<g>
			<polyline class="st8" points="1320.13,322.72 1320.13,449 1303.29,322.72 			"/>
			<polyline class="st9" points="1320.13,322.72 1320.13,449 1336.97,322.72 			"/>
			<circle class="st10" cx="1319.53" cy="300.47" r="29.47"/>
		</g>
		<path class="st11" d="M1344.29,315.5c0.71-0.66,1.16-1.24,1.2-1.2c0.13,0.11-3.5,6.56-9.62,10.82
			c-5.29,3.69-10.76,4.57-13.23,4.81c-12.81,1.27-21.93-6.88-23.05-7.92c-7.49-6.91-11.29-17.57-9.42-26.96
			c1.07-5.4,3.87-9.6,4.7-10.82c3.8-5.6,8.39-8.45,8.42-8.42c0.2,0.21-2.19,2.37-3.61,4.81c-4.91,8.47-0.77,25.17,10.82,33.68
			c0,0,10.1,7.41,25.37,4.81C1337.78,318.78,1341.41,318.17,1344.29,315.5z"/>
	</g>
</g>
<g id="Layer_8">
	
		<ellipse transform="matrix(0.3053 -0.9522 0.9522 0.3053 655.4269 1457.1593)" class="st12" cx="1326.45" cy="279.35" rx="4.67" ry="10.48"/>
</g>
</svg>
