<?xml version="1.0" encoding="utf-8"?>
<!-- Generator: Adobe Illustrator 24.3.0, SVG Export Plug-In . SVG Version: 6.00 Build 0)  -->
<svg version="1.1" id="Layer_1" xmlns="http://www.w3.org/2000/svg" xmlns:xlink="http://www.w3.org/1999/xlink" x="0px" y="0px"
	 viewBox="0 0 200 200" style="enable-background:new 0 0 200 200;" xml:space="preserve">
<style type="text/css">
	.st0{fill:#1A234C;}
</style>
<path id="Icon_awesome-pencil-ruler" class="st0" d="M66.94,100.67l37-37L91.81,51.54L74.84,68.5c-0.85,0.85-2.23,0.85-3.08,0
	c0,0,0,0,0,0l-3.08-3.08c-0.85-0.85-0.85-2.23,0-3.08c0,0,0,0,0,0l16.96-16.96l-9.25-9.25c-3.4-3.41-8.93-3.41-12.33,0c0,0,0,0,0,0
	L39.39,60.79c-3.41,3.41-3.41,8.93,0,12.34c0,0,0,0,0,0L66.94,100.67L66.94,100.67z M173.75,68.55c5.16-5.16,5.16-13.52,0-18.68
	l-12.44-12.44c-5.16-5.16-13.52-5.16-18.68,0l-12.65,12.66l31.13,31.12L173.75,68.55z M123.75,56.31l-81.67,81.65l-5.16,29.54
	c-0.55,3.18,1.57,6.2,4.75,6.75c0.67,0.12,1.35,0.12,2.01,0l29.55-5.18l81.64-81.65L123.75,56.31z M175.07,134.79l-9.25-9.25
	l-16.96,16.96c-0.85,0.85-2.23,0.85-3.08,0c0,0,0,0,0,0l-3.08-3.08c-0.85-0.85-0.85-2.23,0-3.08l16.96-16.96l-12.13-12.13l-37.01,37
	l27.55,27.55c3.4,3.41,8.93,3.41,12.33,0c0,0,0,0,0,0l24.67-24.66C178.48,143.72,178.48,138.2,175.07,134.79
	C175.07,134.79,175.07,134.79,175.07,134.79L175.07,134.79z"/>
</svg>
