<svg xmlns="http://www.w3.org/2000/svg" width="659.95" height="778.01" viewBox="0 0 659.95 778.01">
  <g id="Human" transform="translate(0 25.009)">
    <g id="Bottom_Sitting_Baggy-Pants" data-name="Bottom/Sitting/Baggy-Pants" transform="translate(0 397.517)">
      <g id="Objects_Seat_Cube-2" data-name="Objects/Seat/Cube-2" transform="translate(304.349 86.331)">
        <path id="Seat" d="M314.223,0H76.126A33.126,33.126,0,0,0,43,33.126V223.6A33.125,33.125,0,0,0,76.126,256.73h238.1A33.126,33.126,0,0,0,347.349,223.6V33.126A33.126,33.126,0,0,0,314.223,0ZM281.1,57.971a8.282,8.282,0,0,1,8.282,8.282V190.477a8.282,8.282,0,0,1-8.282,8.282H109.253a8.282,8.282,0,0,1-8.282-8.282V66.253a8.282,8.282,0,0,1,8.282-8.282Z" transform="translate(-43 0)" fill="#fff" fill-rule="evenodd"/>
      </g>
      <path id="LegLower" d="M255.445,286.237q61.23-74.771,82.86-110.862c24.69-41.2,44.9-77.859,51.273-91.863,15.207-33.394-35.008-49.031-46.373-33.455Q317.4,85.42,233,272.608Z" transform="translate(-156.395 46.472)" fill="#d8ae86" fill-rule="evenodd"/>
      <path id="LegLower-2" data-name="LegLower" d="M318.81,277.1,394.779,85.867c16.249-34.86-62.218-57.774-74.158-41.551-27.11,36.831-91.545,182.125-99.622,193.1Z" transform="translate(-136.113 41.12)" fill="#dc8943" fill-rule="evenodd"/>
      <g id="Lower-Leg" transform="matrix(-0.777, 0.629, -0.629, -0.777, 394.878, 286.097)">
        <path id="LegLower-3" data-name="LegLower" d="M3.736,11.042c-2.084,26.089-5.956,116.4-2.082,158.2,1.113,12.012,2.286,23.626,3.468,34.521,3.513,32.384,63.56,31.36,58.791.594-11.875-76.62-32.777-184-34.275-193.275C27.538-1.919,5.046-5.354,3.736,11.042Z" transform="translate(0)" fill="#e9c09a" fill-rule="evenodd"/>
      </g>
      <g id="Accessories_Shoe_Flat-Sneaker" data-name="Accessories/Shoe/Flat-Sneaker" transform="translate(399.687 294.553) rotate(150)">
        <path id="shoe" d="M3.474,30.224Q0,20.949,0,16.344A103.886,103.886,0,0,1,1.866,0H118.641q4.552,15.048-5.255,16.248T97.092,18.415l-54.276,24.2a2.07,2.07,0,0,1-2.734-1.048l-.023-.054L36.57,33.046q-9.079-4.236-14.755-4.236-4.612,0-12.738,3.725h0A4.141,4.141,0,0,1,3.588,30.5Q3.526,30.362,3.474,30.224Z" transform="translate(0 0)" fill="#e4e4e4" fill-rule="evenodd"/>
      </g>
      <g id="Accessories_Shoe_Flat-Sneaker-2" data-name="Accessories/Shoe/Flat-Sneaker" transform="translate(0 312.692)">
        <path id="shoe-2" data-name="shoe" d="M117.609,31.9q3.474,9.275,3.474,13.88a103.886,103.886,0,0,1-1.866,16.344H2.443Q-2.109,47.075,7.7,45.875t16.294-2.167l54.276-24.2A2.07,2.07,0,0,1,81,20.56l.023.054,3.489,8.463q9.079,4.236,14.755,4.236,4.612,0,12.738-3.725h0a4.141,4.141,0,0,1,5.49,2.039Q117.557,31.761,117.609,31.9Z" transform="translate(-1 -19.332)" fill="#e4e4e4" fill-rule="evenodd"/>
      </g>
      <path id="Leg-and-Butt" d="M232.621,136.841q94.712-15.43,126.876-21.1C420.624,104.961,438.448,72.069,427.91.3H315.288Q292.931,6.758,128.468,80.157c-19.727,9.793-16.052,38.666-12.447,48.179q.22.582,99.769,170.955L307.918,240.6l-75.47-96.842Q229.46,137.735,232.621,136.841Z" transform="translate(53.38 -0.302)" fill="#fc9e4f" fill-rule="evenodd"/>
    </g>
    <g id="Head_Front_Short-2" data-name="Head/Front/Short-2" transform="matrix(0.998, 0.07, -0.07, 0.998, 387.052, -25.009)">
      <g id="Head" transform="translate(5.722 15.497)">
        <path id="Path_1" data-name="Path 1" d="M74.689,76.355c10.2-11.974,17.105-26.648,15.952-43.091C87.317-14.113,21.367-3.691,8.538,20.221s-11.3,84.566,5.276,88.84c6.612,1.7,20.7-2.471,35.034-11.112l-9,63.66H92.981Z" transform="translate(0 0)" fill="#e9c09a" fill-rule="evenodd"/>
      </g>
      <path id="Hair" d="M134.494,126.517c6.668-29.667,25.666-49.891,22.765-63.151q-2.9-13.26-15.466-16.492-6.5-26.289-41.917-22.363c-35.419,3.926-57.036,18.635-47.7,51,8.582,0,18.941-3.1,33.267,2.214q6.818,2.531,9.753,15.7h6.474q9.425-15.624,18.585-11.483t4.165,20.118l3.189,24.46Z" transform="translate(-50 -24)" fill="#492f1b" fill-rule="evenodd"/>
    </g>
    <g id="Body_Turtle-Neck" data-name="Body/Turtle-Neck" transform="translate(189.414 143.3)">
      <path id="Skin" d="M125.04,119.3,66.307,176.6Q40.675,187.534,24.3,200.747c-2.455,2.961-5.127,8.633,6.421,6.1s23.81-4.69,25.981-.935-4.225,9.512-.214,14.426q4.012,4.917,26.982-31.267l61.075-36.009ZM412.24,67.45l-45.4.17q51.867,168.043,55.065,175.97c4.8,11.888-5.355,30-9.7,39.726,14.14,6.328,12.633-17.1,30.471-8.807,16.281,7.576,28.666,21.3,47.476,9.693,2.313-1.426,4.847-6.8-1.276-11-15.255-10.46-37.238-28.767-40.208-34.794Q442.6,226.086,412.24,67.45Z" transform="translate(-22.163 82.202)" fill="#e9c09a" fill-rule="evenodd"/>
      <path id="Clothes-Back" d="M0,229.492l17.592,4.626C54.428,137.126,204.914,81.982,217.041,45.58c4.447-13.35-4.762-21.1.67-24.809L195.982,1.747c-4.331,4.242-11.988-4.883-30.019-.545S10.3,111.731,0,229.492Z" transform="translate(271.74 249.483) rotate(175)" fill="#a9c2a6" fill-rule="evenodd"/>
      <path id="Clothes-Front" d="M99.994,29.405c2.067,132.172-74.338,165.887-57.318,218.908,14.053,43.786,148.572,90.854,171.85,47.935,9.423-17.374,13.7-38.385,14.183-61.229q8.924,26.326,14.116,45.324c5.971,21.853,29.119,25.327,29.119,33.745l30.5-8.418c-2.069-11.436,12.309-17.005,8.454-42.557Q284.986,91.391,171.673,14.161l-.782-11.176a8.294,8.294,0,0,0-8.853-7.694L106.2-.805A8.293,8.293,0,0,0,98.5,8.046Z" transform="translate(121.583 4.731)" fill="#c3e0bf" fill-rule="evenodd"/>
    </g>
  </g>
</svg>
